<svg id="amazon_logo_blue" xmlns="http://www.w3.org/2000/svg" width="66.749" height="20.083" viewBox="0 0 66.749 20.083">
  <path id="Fill_1" data-name="Fill 1" d="M32.134,3A24.96,24.96,0,0,1,17.74,7.531,25.616,25.616,0,0,1,.157.617c-.364-.339-.039-.8.4-.54A34.581,34.581,0,0,0,18.149,4.889,34.1,34.1,0,0,0,31.568,2.058c.658-.288,1.21.447.566.937" transform="translate(9.536 12.552)" fill="#273977"/>
  <path id="Fill_2" data-name="Fill 2" d="M5.107,1.848c-.522-.67-3.452-.318-4.769-.159-.4.048-.46-.3-.1-.554C2.575-.511,6.4-.036,6.85.515S6.732,4.92,4.542,6.757c-.337.282-.658.132-.508-.241.493-1.234,1.6-4,1.074-4.667" transform="translate(38.142 11.924)" fill="#273977"/>
  <path id="Fill_3" data-name="Fill 3" d="M.392,1.935V.391A.38.38,0,0,1,.782,0H7.661a.384.384,0,0,1,.4.389V1.713a2.178,2.178,0,0,1-.518.972L3.976,7.8A7.6,7.6,0,0,1,7.9,8.647a.705.705,0,0,1,.365.6V10.9c0,.227-.247.489-.507.352a7.884,7.884,0,0,0-7.268.014C.25,11.391,0,11.132,0,10.9V9.339A1.868,1.868,0,0,1,.256,8.279L4.384,2.324H.79a.384.384,0,0,1-.4-.389" transform="translate(38.142)" fill="#273977"/>
  <path id="Fill_4" data-name="Fill 4" d="M4.73,11.924a4.208,4.208,0,0,1-3.513-1.748A7.168,7.168,0,0,1,0,5.939,6.967,6.967,0,0,1,1.224,1.716,4.223,4.223,0,0,1,4.73,0,4.286,4.286,0,0,1,8.3,1.756a7.136,7.136,0,0,1,1.233,4.3,6.733,6.733,0,0,1-1.3,4.164A4.327,4.327,0,0,1,4.73,11.924Zm.019-9.734C3.288,2.191,3.1,4.013,3.1,5.6v.046a11.388,11.388,0,0,0,.2,2.53c.244,1.018.723,1.534,1.426,1.534,1.706,0,1.706-2.548,1.706-3.636a9.938,9.938,0,0,0-.314-2.846A1.31,1.31,0,0,0,4.748,2.191Z" transform="translate(47.042)" fill="#273977"/>
  <g id="Group_8" data-name="Group 8">
    <path id="Fill_5" data-name="Fill 5" d="M3.083,11.9A2.939,2.939,0,0,1,0,8.655a3.519,3.519,0,0,1,2.2-3.4,11.447,11.447,0,0,1,3.3-.661c.2-.021.391-.04.573-.061a3.758,3.758,0,0,0-.249-1.78,1.444,1.444,0,0,0-1.156-.542H4.657A1.576,1.576,0,0,0,3.015,3.434c-.041.228-.2.406-.363.406H2.627L.653,3.623a.377.377,0,0,1-.246-.148.359.359,0,0,1-.062-.287A3.517,3.517,0,0,1,2.086.676,5.847,5.847,0,0,1,4.954,0a4.753,4.753,0,0,1,3.1,1.037c.92.87.914,2.027.907,3.252,0,.112,0,.222,0,.333V7.865a2.62,2.62,0,0,0,.656,1.762c.041.056.082.111.122.167a.4.4,0,0,1-.006.554c-.417.354-1.573,1.369-1.585,1.379a.446.446,0,0,1-.293.1.325.325,0,0,1-.194-.053,5.463,5.463,0,0,1-1.181-1.388A4.059,4.059,0,0,1,3.083,11.9ZM6.07,6.2a4.567,4.567,0,0,0-2.09.383,1.783,1.783,0,0,0-.973,1.712c0,.932.48,1.511,1.253,1.511a1.663,1.663,0,0,0,1.426-.947,3.945,3.945,0,0,0,.384-2.1V6.2Z" transform="translate(27.009 0.015)" fill="#273977"/>
    <path id="Fill_7" data-name="Fill 7" d="M3.083,11.9A2.939,2.939,0,0,1,0,8.655a3.519,3.519,0,0,1,2.2-3.4,11.447,11.447,0,0,1,3.3-.661c.2-.021.391-.04.573-.061a3.762,3.762,0,0,0-.25-1.78,1.442,1.442,0,0,0-1.156-.542H4.656A1.575,1.575,0,0,0,3.015,3.434c-.042.228-.2.406-.364.406H2.626L.653,3.623a.377.377,0,0,1-.246-.148.359.359,0,0,1-.062-.287A3.517,3.517,0,0,1,2.086.676,5.847,5.847,0,0,1,4.954,0a4.752,4.752,0,0,1,3.1,1.037c.921.87.915,2.027.908,3.252,0,.11,0,.221,0,.333V7.865A2.621,2.621,0,0,0,9.619,9.63l.12.165a.4.4,0,0,1-.006.554c-.417.354-1.573,1.369-1.585,1.379a.446.446,0,0,1-.293.1.325.325,0,0,1-.194-.053,5.463,5.463,0,0,1-1.181-1.388A4.059,4.059,0,0,1,3.083,11.9ZM6.07,6.2a4.567,4.567,0,0,0-2.09.383,1.783,1.783,0,0,0-.973,1.712c0,.932.48,1.511,1.252,1.511a1.663,1.663,0,0,0,1.426-.947,3.938,3.938,0,0,0,.385-2.1V6.2Z" transform="translate(0 0.015)" fill="#273977"/>
  </g>
  <path id="Fill_9" data-name="Fill 9" d="M2.849,5.732c0-1.266-.058-3.015,1.434-3.015,1.473,0,1.279,1.8,1.279,3.015l0,5.8a.4.4,0,0,0,.373.393H8.011a.4.4,0,0,0,.4-.394v-5.8A6.793,6.793,0,0,1,8.6,3.637a1.379,1.379,0,0,1,1.241-.9,1.087,1.087,0,0,1,1.221.944,14.371,14.371,0,0,1,.058,2.048v5.8a.4.4,0,0,0,.372.393h2.074a.4.4,0,0,0,.4-.394l0-6.9c0-1.174.135-2.509-.524-3.43a2.918,2.918,0,0,0-2.4-1.2A2.951,2.951,0,0,0,8.179,2.026,2.749,2.749,0,0,0,5.485,0,2.746,2.746,0,0,0,2.752,2.026H2.713V.629a.393.393,0,0,0-.388-.4H.388A.393.393,0,0,0,0,.629v10.9a.393.393,0,0,0,.388.4H2.461a.393.393,0,0,0,.388-.4V5.732" transform="translate(11.443)" fill="#273977"/>
  <path id="Fill_10" data-name="Fill 10" d="M2.761,11.526a.388.388,0,0,1-.376.4H.376a.388.388,0,0,1-.376-.4V.629a.388.388,0,0,1,.376-.4H2.234a.376.376,0,0,1,.376.311V2.21h.039C3.212.713,4,0,5.39,0A2.6,2.6,0,0,1,7.738,1.289,7.326,7.326,0,0,1,8.264,4.7V11.58a.389.389,0,0,1-.386.344H5.862A.388.388,0,0,1,5.5,11.58l0-6.61c0-2.211-.8-2.276-1.261-2.276a1.383,1.383,0,0,0-1.158.859A5.208,5.208,0,0,0,2.761,5.64v5.886" transform="translate(58.485)" fill="#273977"/>
</svg>
