<svg id="Tezos" xmlns="http://www.w3.org/2000/svg" width="61" height="81" viewBox="0 0 61 81">
  <path id="Path" d="M39.4,81q-8.9,0-12.977-4.176t-4.072-9a5.759,5.759,0,0,1,.71-2.969,5.158,5.158,0,0,1,1.943-1.9,6.078,6.078,0,0,1,3.031-.7,6.082,6.082,0,0,1,3.031.7,5.163,5.163,0,0,1,1.941,1.9,5.759,5.759,0,0,1,.71,2.969A5.523,5.523,0,0,1,32.679,71.3a4.833,4.833,0,0,1-2.463,1.764A6.752,6.752,0,0,0,34.1,75.433a19.558,19.558,0,0,0,5.3.743,11.955,11.955,0,0,0,6.678-1.948,11.371,11.371,0,0,0,4.4-5.753,24.54,24.54,0,0,0,1.421-8.63,23.04,23.04,0,0,0-1.563-8.953,11.108,11.108,0,0,0-4.5-5.567,12.2,12.2,0,0,0-6.44-1.809,12.605,12.605,0,0,0-5.684,1.856l-4.167,2.041V45.372L48.307,20.877H22.354V46.3a8.893,8.893,0,0,0,1.421,5.2,4.946,4.946,0,0,0,4.358,2.041,7.4,7.4,0,0,0,4.357-1.485,15.235,15.235,0,0,0,3.6-3.617,1.37,1.37,0,0,1,.474-.6.955.955,0,0,1,.616-.231,2.235,2.235,0,0,1,1.232.511,2.492,2.492,0,0,1,.663,1.715,11.6,11.6,0,0,1-.237,1.3,12.342,12.342,0,0,1-4.452,5.381,11.2,11.2,0,0,1-6.25,1.856q-8.431,0-11.651-3.246a11.975,11.975,0,0,1-3.22-8.815V20.877H0V16.144H13.262V5.382L10.231,2.411V0h8.808l3.314,1.669V16.144l34.289-.092,3.411,3.34-21.027,20.6A14.345,14.345,0,0,1,43,39.061,17.454,17.454,0,0,1,50.675,41.2,15.748,15.748,0,0,1,57.3,46.947a20.39,20.39,0,0,1,2.984,6.959A28.927,28.927,0,0,1,61,59.845a24.319,24.319,0,0,1-2.557,11.043,16.393,16.393,0,0,1-7.767,7.607A25.665,25.665,0,0,1,39.4,81Z" fill="#2c7df7"/>
</svg>
