<svg id="Photo" xmlns="http://www.w3.org/2000/svg" xmlns:xlink="http://www.w3.org/1999/xlink" width="185.4" height="159" viewBox="0 0 185.4 159">
  <defs>
    <linearGradient id="linear-gradient" x1="0.5" y1="0.255" x2="0.5" y2="1" gradientUnits="objectBoundingBox">
      <stop offset="0" stop-color="#6baaf4"/>
      <stop offset="1" stop-color="#4a90e2"/>
    </linearGradient>
    <filter id="Path" x="82.2" y="36.6" width="103.2" height="80.6" filterUnits="userSpaceOnUse">
      <feOffset dy="2" input="SourceAlpha"/>
      <feGaussianBlur result="blur"/>
      <feFlood flood-color="#2e5e95"/>
      <feComposite operator="in" in2="blur"/>
      <feComposite in="SourceGraphic"/>
    </filter>
    <linearGradient id="linear-gradient-2" x1="0.5" x2="0.5" y2="1" gradientUnits="objectBoundingBox">
      <stop offset="0" stop-color="#2e5e95"/>
      <stop offset="1" stop-color="#4a90e2"/>
    </linearGradient>
    <linearGradient id="linear-gradient-3" x1="0.5" x2="0.5" y2="1" gradientUnits="objectBoundingBox">
      <stop offset="0" stop-color="#4a90e2"/>
      <stop offset="1" stop-color="#2e5e95"/>
    </linearGradient>
    <linearGradient id="linear-gradient-4" x1="0.529" y1="1" x2="0.529" y2="0.042" gradientUnits="objectBoundingBox">
      <stop offset="0" stop-color="#787878"/>
      <stop offset="1" stop-color="#c4c0c0"/>
    </linearGradient>
    <radialGradient id="radial-gradient" cx="0.5" cy="0" r="0.732" xlink:href="#linear-gradient-3"/>
    <radialGradient id="radial-gradient-2" cx="0.5" cy="0.866" r="0.732" xlink:href="#linear-gradient-3"/>
    <filter id="Rectangle" x="135" y="43.8" width="26.4" height="5.4" filterUnits="userSpaceOnUse">
      <feOffset input="SourceAlpha"/>
      <feGaussianBlur result="blur-2"/>
      <feFlood flood-opacity="0.502"/>
      <feComposite operator="in" in2="blur-2"/>
      <feComposite in="SourceGraphic"/>
    </filter>
    <linearGradient id="linear-gradient-5" x1="0.5" y1="0.45" x2="0.5" y2="1" gradientUnits="objectBoundingBox">
      <stop offset="0" stop-color="#fff" stop-opacity="0.149"/>
      <stop offset="1" stop-opacity="0.149"/>
    </linearGradient>
    <linearGradient id="linear-gradient-6" y1="0.5" x2="0.709" y2="0.5" gradientUnits="objectBoundingBox">
      <stop offset="0" stop-color="#2e5e95"/>
      <stop offset="1" stop-color="#2e5e95" stop-opacity="0"/>
    </linearGradient>
    <linearGradient id="linear-gradient-7" x1="1" y1="0.5" x2="0" y2="0.5" xlink:href="#linear-gradient-2"/>
    <filter id="Oval" x="114.6" y="55.8" width="6.6" height="6" filterUnits="userSpaceOnUse">
      <feOffset input="SourceAlpha"/>
      <feGaussianBlur result="blur-3"/>
      <feFlood flood-opacity="0.502"/>
      <feComposite operator="in" in2="blur-3"/>
      <feComposite in="SourceGraphic"/>
    </filter>
    <linearGradient id="linear-gradient-8" x1="0.5" y1="0.45" x2="0.5" y2="1" gradientUnits="objectBoundingBox">
      <stop offset="0" stop-color="#2e5e95"/>
      <stop offset="1" stop-opacity="0.502"/>
    </linearGradient>
    <filter id="Oval_Copy_16" x="114.6" y="56.4" width="6.6" height="6" filterUnits="userSpaceOnUse">
      <feOffset input="SourceAlpha"/>
      <feGaussianBlur result="blur-4"/>
      <feFlood flood-opacity="0.502"/>
      <feComposite operator="in" in2="blur-4"/>
      <feComposite in="SourceGraphic"/>
    </filter>
    <linearGradient id="linear-gradient-10" x1="1" y1="0.5" x2="0" y2="0.5" gradientUnits="objectBoundingBox">
      <stop offset="0" stop-color="red"/>
      <stop offset="0.144" stop-color="#ff0"/>
      <stop offset="0.306" stop-color="lime"/>
      <stop offset="0.496" stop-color="aqua"/>
      <stop offset="0.678" stop-color="blue"/>
      <stop offset="0.847" stop-color="#f0f"/>
      <stop offset="1" stop-color="red"/>
    </linearGradient>
  </defs>
  <g id="Group_12" data-name="Group 12">
    <circle id="Oval-2" data-name="Oval" cx="79.5" cy="79.5" r="79.5" transform="translate(8.4)" fill="#ffad33"/>
    <g id="Group_6" data-name="Group 6" transform="translate(3.6)">
      <rect id="Rectangle-2" data-name="Rectangle" width="62.4" height="62.4" fill="#fff"/>
      <g id="qr-france-ioi-org" transform="translate(1.8 1.8)">
        <path id="Fill_1" data-name="Fill 1" d="M0,16.2H2.4V0H0Z"/>
        <path id="Fill_2" data-name="Fill 2" d="M0,2.4H2.4V0H0Z" transform="translate(0 18.6)"/>
        <path id="Fill_3" data-name="Fill 3" d="M0,2.4H2.4V0H0Z" transform="translate(0 28.2)"/>
        <path id="Fill_4" data-name="Fill 4" d="M0,16.2H2.4V0H0Z" transform="translate(0 42.6)"/>
        <path id="Fill_5" data-name="Fill 5" d="M0,2.4H2.4V0H0Z" transform="translate(2.4)"/>
        <path id="Fill_6" data-name="Fill 6" d="M0,2.4H2.4V0H0Z" transform="translate(2.4 13.8)"/>
        <path id="Fill_7" data-name="Fill 7" d="M0,2.4H2.4V0H0Z" transform="translate(2.4 18.6)"/>
        <path id="Fill_8" data-name="Fill 8" d="M0,2.4H2.4V0H0Z" transform="translate(2.4 25.8)"/>
        <path id="Fill_9" data-name="Fill 9" d="M0,7.2H2.4V0H0Z" transform="translate(2.4 33)"/>
        <path id="Fill_10" data-name="Fill 10" d="M0,2.4H2.4V0H0Z" transform="translate(2.4 42.6)"/>
        <path id="Fill_11" data-name="Fill 11" d="M0,2.4H2.4V0H0Z" transform="translate(2.4 56.4)"/>
        <path id="Fill_12" data-name="Fill 12" d="M0,2.4H2.4V0H0Z" transform="translate(4.8)"/>
        <path id="Fill_13" data-name="Fill 13" d="M0,7.2H2.4V0H0Z" transform="translate(4.8 4.8)"/>
        <path id="Fill_14" data-name="Fill 14" d="M0,2.4H2.4V0H0Z" transform="translate(4.8 13.8)"/>
        <path id="Fill_15" data-name="Fill 15" d="M0,4.8H2.4V0H0Z" transform="translate(4.8 18.6)"/>
        <path id="Fill_16" data-name="Fill 16" d="M0,2.4H2.4V0H0Z" transform="translate(4.8 37.8)"/>
        <path id="Fill_17" data-name="Fill 17" d="M0,2.4H2.4V0H0Z" transform="translate(4.8 42.6)"/>
        <path id="Fill_18" data-name="Fill 18" d="M0,7.2H2.4V0H0Z" transform="translate(4.8 46.8)"/>
        <path id="Fill_19" data-name="Fill 19" d="M0,2.4H2.4V0H0Z" transform="translate(4.8 56.4)"/>
        <path id="Fill_20" data-name="Fill 20" d="M0,2.4H2.4V0H0Z" transform="translate(7.2)"/>
        <path id="Fill_21" data-name="Fill 21" d="M0,7.2H2.4V0H0Z" transform="translate(7.2 4.8)"/>
        <path id="Fill_22" data-name="Fill 22" d="M0,2.4H2.4V0H0Z" transform="translate(7.2 13.8)"/>
        <path id="Fill_23" data-name="Fill 23" d="M0,2.4H2.4V0H0Z" transform="translate(7.2 18.6)"/>
        <path id="Fill_24" data-name="Fill 24" d="M0,7.2H2.4V0H0Z" transform="translate(7.2 30.6)"/>
        <path id="Fill_25" data-name="Fill 25" d="M0,2.4H2.4V0H0Z" transform="translate(7.2 42.6)"/>
        <path id="Fill_26" data-name="Fill 26" d="M0,7.2H2.4V0H0Z" transform="translate(7.2 46.8)"/>
        <path id="Fill_27" data-name="Fill 27" d="M0,2.4H2.4V0H0Z" transform="translate(7.2 56.4)"/>
        <path id="Fill_28" data-name="Fill 28" d="M0,2.4H2.4V0H0Z" transform="translate(9.6)"/>
        <path id="Fill_29" data-name="Fill 29" d="M0,7.2H2.4V0H0Z" transform="translate(9.6 4.8)"/>
        <path id="Fill_30" data-name="Fill 30" d="M0,2.4H2.4V0H0Z" transform="translate(9.6 13.8)"/>
        <path id="Fill_31" data-name="Fill 31" d="M0,9.6H2.4V0H0Z" transform="translate(9.6 18.6)"/>
        <path id="Fill_32" data-name="Fill 32" d="M0,2.4H2.4V0H0Z" transform="translate(9.6 30.6)"/>
        <path id="Fill_33" data-name="Fill 33" d="M0,2.4H2.4V0H0Z" transform="translate(9.6 42.6)"/>
        <path id="Fill_34" data-name="Fill 34" d="M0,7.2H2.4V0H0Z" transform="translate(9.6 46.8)"/>
        <path id="Fill_35" data-name="Fill 35" d="M0,2.4H2.4V0H0Z" transform="translate(9.6 56.4)"/>
        <path id="Fill_36" data-name="Fill 36" d="M0,2.4H2.4V0H0Z" transform="translate(12)"/>
        <path id="Fill_37" data-name="Fill 37" d="M0,2.4H2.4V0H0Z" transform="translate(12 13.8)"/>
        <path id="Fill_38" data-name="Fill 38" d="M0,2.4H2.4V0H0Z" transform="translate(12 33)"/>
        <path id="Fill_39" data-name="Fill 39" d="M0,2.4H2.4V0H0Z" transform="translate(12 42.6)"/>
        <path id="Fill_40" data-name="Fill 40" d="M0,2.4H2.4V0H0Z" transform="translate(12 56.4)"/>
        <path id="Fill_41" data-name="Fill 41" d="M0,16.2H2.4V0H0Z" transform="translate(13.8)"/>
        <path id="Fill_42" data-name="Fill 42" d="M0,2.4H2.4V0H0Z" transform="translate(13.8 18.6)"/>
        <path id="Fill_43" data-name="Fill 43" d="M0,2.4H2.4V0H0Z" transform="translate(13.8 23.4)"/>
        <path id="Fill_44" data-name="Fill 44" d="M0,2.4H2.4V0H0Z" transform="translate(13.8 28.2)"/>
        <path id="Fill_45" data-name="Fill 45" d="M0,2.4H2.4V0H0Z" transform="translate(13.8 33)"/>
        <path id="Fill_46" data-name="Fill 46" d="M0,2.4H2.4V0H0Z" transform="translate(13.8 37.8)"/>
        <path id="Fill_47" data-name="Fill 47" d="M0,16.2H2.4V0H0Z" transform="translate(13.8 42.6)"/>
        <path id="Fill_48" data-name="Fill 48" d="M0,2.4H2.4V0H0Z" transform="translate(16.2 18.6)"/>
        <path id="Fill_49" data-name="Fill 49" d="M0,4.8H2.4V0H0Z" transform="translate(16.2 25.8)"/>
        <path id="Fill_50" data-name="Fill 50" d="M0,2.4H2.4V0H0Z" transform="translate(18.6 2.4)"/>
        <path id="Fill_51" data-name="Fill 51" d="M0,2.4H2.4V0H0Z" transform="translate(18.6 7.2)"/>
        <path id="Fill_52" data-name="Fill 52" d="M0,4.8H2.4V0H0Z" transform="translate(18.6 12)"/>
        <path id="Fill_53" data-name="Fill 53" d="M0,2.4H2.4V0H0Z" transform="translate(18.6 18.6)"/>
        <path id="Fill_54" data-name="Fill 54" d="M0,7.2H2.4V0H0Z" transform="translate(18.6 25.8)"/>
        <path id="Fill_55" data-name="Fill 55" d="M0,7.2H2.4V0H0Z" transform="translate(18.6 37.8)"/>
        <path id="Fill_56" data-name="Fill 56" d="M0,12H2.4V0H0Z" transform="translate(18.6 46.8)"/>
        <path id="Fill_57" data-name="Fill 57" d="M0,7.2H2.4V0H0Z" transform="translate(21 7.2)"/>
        <path id="Fill_58" data-name="Fill 58" d="M0,4.8H2.4V0H0Z" transform="translate(21 16.2)"/>
        <path id="Fill_59" data-name="Fill 59" d="M0,4.8H2.4V0H0Z" transform="translate(21 28.2)"/>
        <path id="Fill_60" data-name="Fill 60" d="M0,2.4H2.4V0H0Z" transform="translate(21 37.8)"/>
        <path id="Fill_61" data-name="Fill 61" d="M0,7.2H2.4V0H0Z" transform="translate(21 44.4)"/>
        <path id="Fill_62" data-name="Fill 62" d="M0,4.8H2.4V0H0Z" transform="translate(21 54)"/>
        <path id="Fill_63" data-name="Fill 63" d="M0,4.8H2.4V0H0Z" transform="translate(23.4)"/>
        <path id="Fill_64" data-name="Fill 64" d="M0,2.4H2.4V0H0Z" transform="translate(23.4 7.2)"/>
        <path id="Fill_65" data-name="Fill 65" d="M0,4.8H2.4V0H0Z" transform="translate(23.4 13.8)"/>
        <path id="Fill_66" data-name="Fill 66" d="M0,4.8H2.4V0H0Z" transform="translate(23.4 21)"/>
        <path id="Fill_67" data-name="Fill 67" d="M0,2.4H2.4V0H0Z" transform="translate(23.4 28.2)"/>
        <path id="Fill_68" data-name="Fill 68" d="M0,2.4H2.4V0H0Z" transform="translate(23.4 33)"/>
        <path id="Fill_69" data-name="Fill 69" d="M0,2.4H2.4V0H0Z" transform="translate(23.4 51.6)"/>
        <path id="Fill_70" data-name="Fill 70" d="M0,2.4H2.4V0H0Z" transform="translate(25.8 12)"/>
        <path id="Fill_71" data-name="Fill 71" d="M0,4.8H2.4V0H0Z" transform="translate(25.8 16.2)"/>
        <path id="Fill_72" data-name="Fill 72" d="M0,7.2H2.4V0H0Z" transform="translate(25.8 33)"/>
        <path id="Fill_73" data-name="Fill 73" d="M0,7.2H2.4V0H0Z" transform="translate(25.8 51.6)"/>
        <path id="Fill_74" data-name="Fill 74" d="M0,2.4H2.4V0H0Z" transform="translate(28.2)"/>
        <path id="Fill_75" data-name="Fill 75" d="M0,4.8H2.4V0H0Z" transform="translate(28.2 4.8)"/>
        <path id="Fill_76" data-name="Fill 76" d="M0,4.8H2.4V0H0Z" transform="translate(28.2 12)"/>
        <path id="Fill_77" data-name="Fill 77" d="M0,2.4H2.4V0H0Z" transform="translate(28.2 21)"/>
        <path id="Fill_78" data-name="Fill 78" d="M0,4.8H2.4V0H0Z" transform="translate(28.2 25.8)"/>
        <path id="Fill_79" data-name="Fill 79" d="M0,2.4H2.4V0H0Z" transform="translate(28.2 33)"/>
        <path id="Fill_80" data-name="Fill 80" d="M0,2.4H2.4V0H0Z" transform="translate(28.2 40.2)"/>
        <path id="Fill_81" data-name="Fill 81" d="M0,4.8H2.4V0H0Z" transform="translate(28.2 44.4)"/>
        <path id="Fill_82" data-name="Fill 82" d="M0,2.4H2.4V0H0Z" transform="translate(28.2 51.6)"/>
        <path id="Fill_83" data-name="Fill 83" d="M0,2.4H2.4V0H0Z" transform="translate(30.6 2.4)"/>
        <path id="Fill_84" data-name="Fill 84" d="M0,7.2H2.4V0H0Z" transform="translate(30.6 7.2)"/>
        <path id="Fill_85" data-name="Fill 85" d="M0,7.2H2.4V0H0Z" transform="translate(30.6 21)"/>
        <path id="Fill_86" data-name="Fill 86" d="M0,7.2H2.4V0H0Z" transform="translate(30.6 40.2)"/>
        <path id="Fill_87" data-name="Fill 87" d="M0,4.8H2.4V0H0Z" transform="translate(33 2.4)"/>
        <path id="Fill_88" data-name="Fill 88" d="M0,7.2H2.4V0H0Z" transform="translate(33 11.4)"/>
        <path id="Fill_89" data-name="Fill 89" d="M0,2.4H2.4V0H0Z" transform="translate(33 23.4)"/>
        <path id="Fill_90" data-name="Fill 90" d="M0,2.4H2.4V0H0Z" transform="translate(33 28.2)"/>
        <path id="Fill_91" data-name="Fill 91" d="M0,2.4H2.4V0H0Z" transform="translate(33 35.4)"/>
        <path id="Fill_92" data-name="Fill 92" d="M0,4.8H2.4V0H0Z" transform="translate(33 40.2)"/>
        <path id="Fill_93" data-name="Fill 93" d="M0,2.4H2.4V0H0Z" transform="translate(33 46.8)"/>
        <path id="Fill_94" data-name="Fill 94" d="M0,2.4H2.4V0H0Z" transform="translate(33 54)"/>
        <path id="Fill_95" data-name="Fill 95" d="M0,2.4H2.4V0H0Z" transform="translate(35.4 2.4)"/>
        <path id="Fill_96" data-name="Fill 96" d="M0,2.4H2.4V0H0Z" transform="translate(35.4 7.2)"/>
        <path id="Fill_97" data-name="Fill 97" d="M0,2.4H2.4V0H0Z" transform="translate(35.4 12)"/>
        <path id="Fill_98" data-name="Fill 98" d="M0,2.4H2.4V0H0Z" transform="translate(35.4 23.4)"/>
        <path id="Fill_99" data-name="Fill 99" d="M0,4.8H2.4V0H0Z" transform="translate(35.4 33)"/>
        <path id="Fill_100" data-name="Fill 100" d="M0,2.4H2.4V0H0Z" transform="translate(35.4 40.2)"/>
        <path id="Fill_101" data-name="Fill 101" d="M0,2.4H2.4V0H0Z" transform="translate(35.4 46.8)"/>
        <path id="Fill_102" data-name="Fill 102" d="M0,2.4H2.4V0H0Z" transform="translate(35.4 54)"/>
        <path id="Fill_103" data-name="Fill 103" d="M0,2.4H2.4V0H0Z" transform="translate(37.8)"/>
        <path id="Fill_104" data-name="Fill 104" d="M0,12H2.4V0H0Z" transform="translate(37.8 7.2)"/>
        <path id="Fill_105" data-name="Fill 105" d="M0,2.4H2.4V0H0Z" transform="translate(37.8 21)"/>
        <path id="Fill_106" data-name="Fill 106" d="M0,2.4H2.4V0H0Z" transform="translate(37.8 25.8)"/>
        <path id="Fill_107" data-name="Fill 107" d="M0,2.4H2.4V0H0Z" transform="translate(37.8 33)"/>
        <path id="Fill_108" data-name="Fill 108" d="M0,18.6H2.4V0H0Z" transform="translate(37.8 37.8)"/>
        <path id="Fill_109" data-name="Fill 109" d="M0,2.4H2.4V0H0Z" transform="translate(40.2 18.6)"/>
        <path id="Fill_110" data-name="Fill 110" d="M0,4.8H2.4V0H0Z" transform="translate(40.2 23.4)"/>
        <path id="Fill_111" data-name="Fill 111" d="M0,7.2H2.4V0H0Z" transform="translate(40.2 33)"/>
        <path id="Fill_112" data-name="Fill 112" d="M0,4.8H2.4V0H0Z" transform="translate(40.2 46.8)"/>
        <path id="Fill_113" data-name="Fill 113" d="M0,2.4H2.4V0H0Z" transform="translate(40.2 56.4)"/>
        <path id="Fill_114" data-name="Fill 114" d="M0,16.2H2.4V0H0Z" transform="translate(42.6)"/>
        <path id="Fill_115" data-name="Fill 115" d="M0,7.2H2.4V0H0Z" transform="translate(42.6 23.4)"/>
        <path id="Fill_116" data-name="Fill 116" d="M0,4.8H2.4V0H0Z" transform="translate(42.6 35.4)"/>
        <path id="Fill_117" data-name="Fill 117" d="M0,2.4H2.4V0H0Z" transform="translate(42.6 42.6)"/>
        <path id="Fill_118" data-name="Fill 118" d="M0,4.8H2.4V0H0Z" transform="translate(42.6 46.8)"/>
        <path id="Fill_119" data-name="Fill 119" d="M0,2.4H2.4V0H0Z" transform="translate(42.6 56.4)"/>
        <path id="Fill_120" data-name="Fill 120" d="M0,2.4H2.4V0H0Z" transform="translate(44.4)"/>
        <path id="Fill_121" data-name="Fill 121" d="M0,2.4H2.4V0H0Z" transform="translate(44.4 13.8)"/>
        <path id="Fill_122" data-name="Fill 122" d="M0,7.2H2.4V0H0Z" transform="translate(44.4 18.6)"/>
        <path id="Fill_123" data-name="Fill 123" d="M0,2.4H2.4V0H0Z" transform="translate(44.4 30.6)"/>
        <path id="Fill_124" data-name="Fill 124" d="M0,4.8H2.4V0H0Z" transform="translate(44.4 35.4)"/>
        <path id="Fill_125" data-name="Fill 125" d="M0,2.4H2.4V0H0Z" transform="translate(44.4 46.8)"/>
        <path id="Fill_126" data-name="Fill 126" d="M0,4.8H2.4V0H0Z" transform="translate(44.4 51.6)"/>
        <path id="Fill_127" data-name="Fill 127" d="M0,2.4H2.4V0H0Z" transform="translate(46.8)"/>
        <path id="Fill_128" data-name="Fill 128" d="M0,7.2H2.4V0H0Z" transform="translate(46.8 4.8)"/>
        <path id="Fill_129" data-name="Fill 129" d="M0,2.4H2.4V0H0Z" transform="translate(46.8 13.8)"/>
        <path id="Fill_130" data-name="Fill 130" d="M0,2.4H2.4V0H0Z" transform="translate(46.8 23.4)"/>
        <path id="Fill_131" data-name="Fill 131" d="M0,2.4H2.4V0H0Z" transform="translate(46.8 28.2)"/>
        <path id="Fill_132" data-name="Fill 132" d="M0,18.6H2.4V0H0Z" transform="translate(46.8 33)"/>
        <path id="Fill_133" data-name="Fill 133" d="M0,2.4H2.4V0H0Z" transform="translate(49.2)"/>
        <path id="Fill_134" data-name="Fill 134" d="M0,7.2H2.4V0H0Z" transform="translate(49.2 4.8)"/>
        <path id="Fill_135" data-name="Fill 135" d="M0,2.4H2.4V0H0Z" transform="translate(49.2 13.8)"/>
        <path id="Fill_136" data-name="Fill 136" d="M0,2.4H2.4V0H0Z" transform="translate(49.2 18.6)"/>
        <path id="Fill_137" data-name="Fill 137" d="M0,4.8H2.4V0H0Z" transform="translate(49.2 25.8)"/>
        <path id="Fill_138" data-name="Fill 138" d="M0,2.4H2.4V0H0Z" transform="translate(49.2 33)"/>
        <path id="Fill_139" data-name="Fill 139" d="M0,2.4H2.4V0H0Z" transform="translate(49.2 37.8)"/>
        <path id="Fill_140" data-name="Fill 140" d="M0,2.4H2.4V0H0Z" transform="translate(49.2 42.6)"/>
        <path id="Fill_141" data-name="Fill 141" d="M0,4.8H2.4V0H0Z" transform="translate(49.2 49.2)"/>
        <path id="Fill_142" data-name="Fill 142" d="M0,2.4H2.4V0H0Z" transform="translate(49.2 56.4)"/>
        <path id="Fill_143" data-name="Fill 143" d="M0,2.4H2.4V0H0Z" transform="translate(51.6)"/>
        <path id="Fill_144" data-name="Fill 144" d="M0,7.2H2.4V0H0Z" transform="translate(51.6 4.8)"/>
        <path id="Fill_145" data-name="Fill 145" d="M0,2.4H2.4V0H0Z" transform="translate(51.6 13.8)"/>
        <path id="Fill_146" data-name="Fill 146" d="M0,2.4H2.4V0H0Z" transform="translate(51.6 23.4)"/>
        <path id="Fill_147" data-name="Fill 147" d="M0,7.2H2.4V0H0Z" transform="translate(51.6 28.2)"/>
        <path id="Fill_148" data-name="Fill 148" d="M0,2.4H2.4V0H0Z" transform="translate(51.6 37.8)"/>
        <path id="Fill_149" data-name="Fill 149" d="M0,2.4H2.4V0H0Z" transform="translate(51.6 42.6)"/>
        <path id="Fill_150" data-name="Fill 150" d="M0,2.4H2.4V0H0Z" transform="translate(51.6 46.8)"/>
        <path id="Fill_151" data-name="Fill 151" d="M0,2.4H2.4V0H0Z" transform="translate(51.6 51.6)"/>
        <path id="Fill_152" data-name="Fill 152" d="M0,2.4H2.4V0H0Z" transform="translate(51.6 56.4)"/>
        <path id="Fill_153" data-name="Fill 153" d="M0,2.4H2.4V0H0Z" transform="translate(54)"/>
        <path id="Fill_154" data-name="Fill 154" d="M0,2.4H2.4V0H0Z" transform="translate(54 13.8)"/>
        <path id="Fill_155" data-name="Fill 155" d="M0,28.2H2.4V0H0Z" transform="translate(54 18.6)"/>
        <path id="Fill_156" data-name="Fill 156" d="M0,2.4H2.4V0H0Z" transform="translate(54 49.2)"/>
        <path id="Fill_157" data-name="Fill 157" d="M0,2.4H2.4V0H0Z" transform="translate(54 56.4)"/>
        <path id="Fill_158" data-name="Fill 158" d="M0,16.2H2.4V0H0Z" transform="translate(56.4)"/>
        <path id="Fill_159" data-name="Fill 159" d="M0,2.4H2.4V0H0Z" transform="translate(56.4 23.4)"/>
        <path id="Fill_160" data-name="Fill 160" d="M0,2.4H2.4V0H0Z" transform="translate(56.4 28.2)"/>
        <path id="Fill_161" data-name="Fill 161" d="M0,2.4H2.4V0H0Z" transform="translate(56.4 33)"/>
        <path id="Fill_162" data-name="Fill 162" d="M0,2.4H2.4V0H0Z" transform="translate(56.4 37.8)"/>
        <path id="Fill_163" data-name="Fill 163" d="M0,2.4H2.4V0H0Z" transform="translate(56.4 42.6)"/>
        <path id="Fill_164" data-name="Fill 164" d="M0,12H2.4V0H0Z" transform="translate(56.4 46.8)"/>
      </g>
    </g>
    <g id="Group_7" data-name="Group 7" transform="translate(34.8 28.2)">
      <rect id="Rectangle-3" data-name="Rectangle" width="82.8" height="62.4" fill="#fff"/>
      <rect id="Rectangle-4" data-name="Rectangle" width="11.4" height="54" transform="translate(4.2 4.2)" fill="#2e5e95"/>
      <rect id="Rectangle_Copy_11" data-name="Rectangle Copy 11" width="11.4" height="54" transform="translate(66.6 4.2)" fill="#2e5e95"/>
      <rect id="Rectangle_Copy_2" data-name="Rectangle Copy 2" width="5.4" height="54" transform="translate(16.8 4.2)" fill="#2e5e95"/>
      <rect id="Rectangle_Copy_3" data-name="Rectangle Copy 3" width="2.4" height="54" transform="translate(25.8 4.2)" fill="#2e5e95"/>
      <rect id="Rectangle_Copy_7" data-name="Rectangle Copy 7" width="2.4" height="54" transform="translate(37.8 4.2)" fill="#2e5e95"/>
      <rect id="Rectangle_Copy_10" data-name="Rectangle Copy 10" width="2.4" height="54" transform="translate(60.6 4.2)" fill="#2e5e95"/>
      <rect id="Rectangle_Copy_4" data-name="Rectangle Copy 4" width="7.2" height="54" transform="translate(29.4 4.2)" fill="#2e5e95"/>
      <rect id="Rectangle_Copy_8" data-name="Rectangle Copy 8" width="7.2" height="54" transform="translate(41.4 4.2)" fill="#2e5e95"/>
      <rect id="Rectangle_Copy_9" data-name="Rectangle Copy 9" width="7.2" height="54" transform="translate(52.2 4.2)" fill="#2e5e95"/>
    </g>
    <g id="Group_4" data-name="Group 4" transform="translate(82.2 36.6)">
      <g transform="matrix(1, 0, 0, 1, -82.2, -36.6)" filter="url(#Path)">
        <path id="Path-2" data-name="Path" d="M74.731,0a8.419,8.419,0,0,1,8.1,6.081l2.227,6.765a3.6,3.6,0,0,0,2.6,2.379l9.047,2.118A8.392,8.392,0,0,1,103.2,25.5V70.216A8.4,8.4,0,0,1,94.776,78.6H8.424A8.4,8.4,0,0,1,0,70.216V26.5a8.4,8.4,0,0,1,7.644-8.348L42.95,14.888a3,3,0,0,0,2.573-2.049l2.225-6.758A8.419,8.419,0,0,1,55.848,0Z" transform="translate(82.2 36.6)" fill="url(#linear-gradient)"/>
      </g>
      <ellipse id="Oval-3" data-name="Oval" cx="5.4" cy="2.7" rx="5.4" ry="2.7" transform="translate(8.4 22.8)" fill="#2e5e95"/>
      <path id="Path_3" data-name="Path 3" d="M0,31.2,4.428,16.581A23.35,23.35,0,0,1,26.775,0h.51A23.4,23.4,0,0,1,49.463,15.936L54.6,31.2Z" transform="translate(39 15.6)" opacity="0.797" fill="url(#linear-gradient-2)"/>
      <circle id="Oval-4" data-name="Oval" cx="27.3" cy="27.3" r="27.3" transform="translate(39 19.8)" fill="url(#linear-gradient-3)"/>
      <g id="Oval-5" data-name="Oval" transform="translate(43.2 24)" stroke="#2e5e95" stroke-miterlimit="10" stroke-width="0.6" fill="url(#linear-gradient-4)">
        <circle cx="23.1" cy="23.1" r="23.1" stroke="none"/>
        <circle cx="23.1" cy="23.1" r="22.8" fill="none"/>
      </g>
      <ellipse id="Oval-6" data-name="Oval" cx="18" cy="17.7" rx="18" ry="17.7" transform="translate(48.6 29.4)" fill="#2e5e95"/>
      <circle id="Oval-7" data-name="Oval" cx="8.4" cy="8.4" r="8.4" transform="translate(58.2 39)" fill="url(#radial-gradient)"/>
      <g id="Oval-8" data-name="Oval" transform="translate(54 34.8)" fill="none" stroke="#4a90e2" stroke-miterlimit="10" stroke-width="0.6" opacity="0.318">
        <circle cx="12.6" cy="12.6" r="12.6" stroke="none"/>
        <circle cx="12.6" cy="12.6" r="12.3" fill="none"/>
      </g>
      <circle id="Oval-9" data-name="Oval" cx="4.2" cy="4.2" r="4.2" transform="translate(62.4 43.2)" fill="url(#radial-gradient-2)"/>
      <g id="Rectangle-5" data-name="Rectangle">
        <g transform="matrix(1, 0, 0, 1, -82.2, -36.6)" filter="url(#Rectangle)">
          <rect id="Rectangle-6" data-name="Rectangle" width="26.4" height="5.4" rx="2.7" transform="translate(135 43.8)" fill="#e0e1e7"/>
        </g>
        <rect id="Rectangle-7" data-name="Rectangle" width="26.4" height="5.4" rx="2.7" transform="translate(52.8 7.2)" fill="url(#linear-gradient-5)"/>
      </g>
      <path id="Rectangle-8" data-name="Rectangle" d="M0,1.2A1.2,1.2,0,0,1,1.2,0H8.4A1.2,1.2,0,0,1,9.6,1.2v3A1.2,1.2,0,0,1,8.4,5.4H1.2A1.2,1.2,0,0,1,0,4.2Z" transform="translate(91.8 25.2)" fill="#2e5e95"/>
      <path id="Rectangle-9" data-name="Rectangle" d="M0,0H4.8A1.8,1.8,0,0,1,6.6,1.8V6.6A1.8,1.8,0,0,1,4.8,8.4H0a0,0,0,0,1,0,0V0A0,0,0,0,1,0,0Z" transform="translate(92.4 43.2)" fill="#2e5e95"/>
      <ellipse id="Oval-10" data-name="Oval" cx="8.4" cy="24.6" rx="8.4" ry="24.6" transform="translate(19.2 25.2)" fill="url(#linear-gradient-6)"/>
      <g id="Group_2" data-name="Group 2" transform="matrix(0.996, -0.087, 0.087, 0.996, 13.506, 12.548)">
        <rect id="Rectangle-10" data-name="Rectangle" width="23.167" height="5.24" rx="0.6" fill="url(#linear-gradient-7)"/>
        <rect id="Rectangle-11" data-name="Rectangle" width="23.167" height="1.048" rx="0.3" fill="#4a90e2"/>
      </g>
      <g id="Oval-11" data-name="Oval">
        <g transform="matrix(1, 0, 0, 1, -82.2, -36.6)" filter="url(#Oval)">
          <ellipse id="Oval-12" data-name="Oval" cx="3.3" cy="3" rx="3.3" ry="3" transform="translate(114.6 55.8)" fill="none"/>
        </g>
        <ellipse id="Oval-13" data-name="Oval" cx="3.3" cy="3" rx="3.3" ry="3" transform="translate(32.4 19.2)" fill="url(#linear-gradient-8)"/>
      </g>
      <g id="Oval_Copy_16-2" data-name="Oval Copy 16">
        <g transform="matrix(1, 0, 0, 1, -82.2, -36.6)" filter="url(#Oval_Copy_16)">
          <ellipse id="Oval_Copy_16-3" data-name="Oval Copy 16" cx="3.3" cy="3" rx="3.3" ry="3" transform="translate(114.6 56.4)" fill="#e0e1e7"/>
        </g>
        <ellipse id="Oval_Copy_16-4" data-name="Oval Copy 16" cx="3.3" cy="3" rx="3.3" ry="3" transform="translate(32.4 19.8)" fill="url(#linear-gradient-5)"/>
      </g>
    </g>
    <rect id="Rectangle-12" data-name="Rectangle" width="127.2" height="8.4" rx="4.2" transform="translate(0 130.2)" fill="url(#linear-gradient-10)"/>
    <path id="Triangle" d="M5,1.5a1.2,1.2,0,0,1,2,0l3.758,5.637A1.2,1.2,0,0,1,9.758,9H2.242a1.2,1.2,0,0,1-1-1.866Z" transform="translate(79.8 138.6)" fill="#2e5e95"/>
  </g>
</svg>
