<svg id="Group" xmlns="http://www.w3.org/2000/svg" xmlns:xlink="http://www.w3.org/1999/xlink" width="120.199" height="101.716" viewBox="0 0 120.199 101.716">
  <defs>
    <clipPath id="clip-path">
      <path id="Clip_8" data-name="Clip 8" d="M0,0,47.656-.121l-.018,6.948L-.018,6.948Z" transform="translate(0 0)" fill="none"/>
    </clipPath>
  </defs>
  <rect id="Rectangle" width="49.5" height="49.753" rx="2.75" fill="#f5a623"/>
  <rect id="Rectangle_Copy_3" data-name="Rectangle Copy 3" width="49.5" height="49.753" rx="2.75" transform="translate(51.7 51.964)" fill="#e8e8e8"/>
  <path id="Combined_Shape" data-name="Combined Shape" d="M.246,48.141A2.728,2.728,0,0,1,0,47v-.456L.248,48.14ZM17.58,32.182h0a16.957,16.957,0,0,1-6.921-1.574,26.163,26.163,0,0,1-5.579-3.461A32.616,32.616,0,0,1,0,22.112V2.75A2.754,2.754,0,0,1,2.75,0h44A2.754,2.754,0,0,1,49.5,2.75V22.112a13.011,13.011,0,0,0-2.71-.226A28.025,28.025,0,0,0,38.7,23.2,45.549,45.549,0,0,0,26.4,29.3,15.47,15.47,0,0,1,17.58,32.182Z" transform="translate(51.7 51.964)" fill="#ff00a1"/>
  <rect id="Rectangle_Copy" data-name="Rectangle Copy" width="49.5" height="49.753" rx="2.75" transform="translate(51.7)" fill="#4a90e2"/>
  <rect id="Rectangle_Copy_2" data-name="Rectangle Copy 2" width="49.5" height="49.753" rx="2.75" transform="translate(0 51.964)" fill="#9acc68"/>
  <g id="Pinceau" transform="translate(58.3 92.271) rotate(-45)">
    <path id="Fill_1" data-name="Fill 1" d="M16.383,5.35a5.529,5.529,0,0,1-5.53,5.514C6.958,10.859,2.006,9.5.07,5.562c-.342-.7.425-1.455,1.188-1.317,3.735.674,4.758-1.366,5.421-2.2A5.466,5.466,0,0,1,10.951-.028,5.412,5.412,0,0,1,16.383,5.35" transform="translate(0 0)" fill="#4a90e2"/>
    <path id="Fill_3" data-name="Fill 3" d="M0,0A.834.834,0,0,0,.053.136c1.935,3.934,6.888,5.3,10.783,5.3A5.544,5.544,0,0,0,16.321.647c-.3.332-.384-.347-.738-.092C11.073,4.537,1.137,1.723,0,0" transform="translate(0.018 5.426)" fill="#2e5e95"/>
    <path id="Fill_5" data-name="Fill 5" d="M15.4,6.908-.016,6.286,0,.662l15.419-.7Z" transform="translate(15.611 1.945)" fill="#cecece"/>
    <g id="Group_9" data-name="Group 9" transform="translate(31.028 1.906)">
      <path id="Clip_8-2" data-name="Clip 8" d="M0,0,47.656-.121l-.018,6.948L-.018,6.948Z" transform="translate(0 0)" fill="none"/>
      <g id="Group_9-2" data-name="Group 9" transform="translate(0 0)" clip-path="url(#clip-path)">
        <path id="Fill_7" data-name="Fill 7" d="M-.018,6.948,46.127,4.706A1.651,1.651,0,0,0,46.1,1.413L0,0Z" transform="translate(0 0)" fill="#f5a623"/>
      </g>
    </g>
    <path id="Fill_10" data-name="Fill 10" d="M0,.86-.01,3.838,46.135,1.6a1.608,1.608,0,0,0,1.52-1.717C29.532.821,12.306,1.516,0,.86" transform="translate(31.02 5.016)" fill="#cc861f"/>
    <path id="Fill_12" data-name="Fill 12" d="M0,0-.006,2.25l15.416.622.007-2.911Z" transform="translate(15.6 5.982)" fill="#969696"/>
    <path id="Fill_14" data-name="Fill 14" d="M0,.023-.017,6.839H.512L.529,0Z" transform="translate(29.506 1.953)" fill="#969696"/>
    <path id="Fill_16" data-name="Fill 16" d="M-.017,6.749l.529.021L.529,0,0,.023Z" transform="translate(28.447 2.001)" fill="#969696"/>
    <path id="Fill_18" data-name="Fill 18" d="M7.765,2.511C7.594,1.92,8,1.251,7.758.683,7.5.064,6.677-.043,6.006-.011l-.04,0c-.759.857-2.043,1.751-4.7,1.271C.5,1.125-.264,1.885.078,2.58c1.353,2.75,4.18,4.243,7.089,4.895.04-.13.076-.261.109-.393a1.942,1.942,0,0,1,.3-.786,4.006,4.006,0,0,1,.757-.55A1.554,1.554,0,0,0,8.7,3.761c-.278-.445-.791-.745-.936-1.25" transform="translate(-0.008 2.982)" fill="#ff00a1"/>
  </g>
</svg>
