<svg id="Image" xmlns="http://www.w3.org/2000/svg" xmlns:xlink="http://www.w3.org/1999/xlink" width="219.382" height="174.807" viewBox="0 0 219.382 174.807">
  <defs>
    <clipPath id="clip-path">
      <path id="Clip_8" data-name="Clip 8" d="M0,0H86.428V12.6H0Z" transform="translate(0 0.049)" fill="none"/>
    </clipPath>
  </defs>
  <circle id="Oval" cx="84" cy="84" r="84" fill="#2e5e95"/>
  <g id="Group" transform="translate(31 35)">
    <circle id="Oval_Copy" data-name="Oval Copy" cx="35.75" cy="35.75" r="35.75" transform="translate(35.75 0)" fill="#9acc68"/>
    <circle id="Oval_Copy_2" data-name="Oval Copy 2" cx="35.75" cy="35.75" r="35.75" transform="translate(17.55 35.75)" fill="#ff00a1"/>
    <circle id="Oval-2" data-name="Oval" cx="35.75" cy="35.75" r="35.75" transform="translate(0 0)" fill="#4a90e2"/>
    <path id="Path" d="M2.389,43.844l-.117-.308-.183-.5h0L1.9,42.489h0l-.158-.475h0l-.2-.621h0l-.125-.42h0l-.13-.458h0l-.145-.542h0q-.31-1.2-.539-2.422L.507,37h0L.418,36.45h0l-.091-.626h0l-.054-.412h0A36.1,36.1,0,0,1,0,30.967,35.733,35.733,0,0,1,17.546.192L17.875,0A35.736,35.736,0,0,1,35.75,30.967a36.077,36.077,0,0,1-.318,4.788A35.76,35.76,0,0,1,53.026,62.272a35.8,35.8,0,0,1-34.783-.128l-.368-.211-.23-.134h0l-.383-.228h0l-.57-.352h0L16.351,61h0l-.494-.326h0l-.465-.318h0l-.449-.317h0l-.413-.3h0l-.464-.349h0q-.31-.236-.614-.479l-.325-.263-.313-.26-.286-.242h0l-.576-.5h0l-.335-.3h0l-.41-.381h0l-.328-.314h0l-.544-.538h0l-.295-.3h0L9.8,55.559l-.408-.438h0l-.3-.335h0l-.29-.329h0l-.347-.4h0l-.23-.274h0l-.248-.3h0l-.329-.412h0l-.309-.4h0l-.318-.423h0l-.289-.4h0l-.161-.225h0l-.27-.387h0l-.33-.487h0l-.3-.451h0l-.343-.543h0l-.182-.3h0l-.28-.47h0l-.229-.4h0l-.22-.394h0l-.279-.516h0l-.233-.448h0l-.213-.422-.1-.194h0l-.225-.469h0l-.133-.287h0l-.189-.419h0l-.23-.53h0l-.179-.431h0l-.253-.637Z" transform="translate(35.75 4.783)" fill="#9acc68"/>
    <path id="Path-2" data-name="Path" d="M35.432,0h.328l.52.008h0l.3.008h0l.579.023h0l.5.027h0l.565.039h0l.6.052h0l.64.066h0l.526.063h0l.556.075h0l.512.077h0l.314.051h0L41.9.584h0l.656.126h0l.38.079.452.1h0l.658.156h0l.435.111h0l.524.141h0l.421.12h0l.211.062h0l.366.111h0l.49.155h0l.637.214h0l.5.178h0l.436.161h0l.341.131h0l.694.279h0l.439.185h0l.422.185h0l.114.051q.435.2.863.4l.561.277h0l.535.275h0l.354.189h0l.376.206h0l.545.309h0a35.765,35.765,0,0,1,17.6,26.519,35.8,35.8,0,0,1-35.152-.338A35.583,35.583,0,0,1,17.882,35.75,35.585,35.585,0,0,1,0,30.963,35.77,35.77,0,0,1,17.84,4.621l.316-.176.262-.144h0l.38-.2h0l.244-.127h0q.431-.223.869-.435l.35-.167h0l.443-.2h0l.445-.2h0l.542-.231h0q.428-.178.861-.346l.555-.209h0l.54-.194h0l.4-.135h0l.543-.178h0l.47-.146h0l.557-.164h0l.454-.126h0l.19-.051h0l.646-.165h0l.6-.14h0L28.064.76h0l.484-.1h0l.608-.113h0l.587-.1h0l.5-.077h0l.466-.065h0l.656-.08h0L31.7.192h0l.239-.024h0l.6-.053h0l.519-.038h0l.5-.029h0l.491-.022h0l.375-.012h0L34.9,0h0Q35.165,0,35.432,0Z" transform="translate(17.868 35.75)" fill="#ff00dc"/>
  </g>
  <g id="Pinceau" transform="translate(107.017 160.841) rotate(-45)">
    <path id="Fill_1" data-name="Fill 1" d="M29.736,9.777a9.967,9.967,0,0,1-10,9.974C12.669,19.725,3.681,17.23.153,10.087-.47,8.825.917,7.451,2.3,7.7c6.777,1.24,8.622-2.455,9.821-3.965A9.876,9.876,0,0,1,29.736,9.777" transform="translate(0 0)" fill="#4a90e2"/>
    <path id="Fill_3" data-name="Fill 3" d="M0,0A1.521,1.521,0,0,0,.1.247C3.624,7.39,12.612,9.885,19.676,9.911A9.991,9.991,0,0,0,29.6,1.25c-.541.6-.7-.631-1.339-.17C20.1,8.28,2.07,3.13,0,0" transform="translate(0.057 9.84)" fill="#2e5e95"/>
    <path id="Fill_5" data-name="Fill 5" d="M27.96,12.6,0,11.4V1.2L27.96,0Z" transform="translate(28.32 3.6)" fill="#cecece"/>
    <g id="Group_9" data-name="Group 9" transform="translate(56.28 3.551)">
      <path id="Clip_8-2" data-name="Clip 8" d="M0,0H86.428V12.6H0Z" transform="translate(0 0.049)" fill="none"/>
      <g id="Group_9-2" data-name="Group 9" clip-path="url(#clip-path)">
        <path id="Fill_7" data-name="Fill 7" d="M0,12.6,83.676,8.748a2.994,2.994,0,0,0-.067-5.973L0,0Z" transform="translate(0 0.049)" fill="#f5a623"/>
      </g>
    </g>
    <path id="Fill_10" data-name="Fill 10" d="M0,1.56v5.4L83.676,3.108A2.9,2.9,0,0,0,86.425,0C53.563,1.624,22.326,2.806,0,1.56" transform="translate(56.28 9.24)" fill="#cc861f"/>
    <path id="Fill_12" data-name="Fill 12" d="M0,0V4.08l27.96,1.2V0Z" transform="translate(28.32 10.92)" fill="#969696"/>
    <path id="Fill_14" data-name="Fill 14" d="M0,.041V12.4H.96V0Z" transform="translate(53.52 3.677)" fill="#969696"/>
    <path id="Fill_16" data-name="Fill 16" d="M0,12.24l.96.041V0L0,.041Z" transform="translate(51.6 3.76)" fill="#969696"/>
    <path id="Fill_18" data-name="Fill 18" d="M14.094,4.59c-.312-1.074.412-2.285-.021-3.317C13.6.15,12.11-.047,10.893.008l-.072,0C9.448,1.562,7.124,3.178,2.3,2.3.917,2.042-.47,3.416.154,4.679c2.466,4.993,7.6,7.714,12.879,8.91.071-.236.137-.473.2-.712a3.5,3.5,0,0,1,.548-1.423,7.213,7.213,0,0,1,1.37-.993,2.812,2.812,0,0,0,.651-3.6c-.507-.808-1.437-1.355-1.7-2.271" transform="translate(0 5.409)" fill="#ff00a1"/>
  </g>
</svg>
