<svg id="Data" xmlns="http://www.w3.org/2000/svg" xmlns:xlink="http://www.w3.org/1999/xlink" width="171.6" height="112" viewBox="0 0 171.6 112">
  <defs>
    <linearGradient id="linear-gradient" x1="0.5" y1="0.255" x2="0.5" y2="1" gradientUnits="objectBoundingBox">
      <stop offset="0" stop-color="#2e5e95"/>
      <stop offset="1" stop-color="#2e5e95"/>
    </linearGradient>
    <filter id="Rectangle_Copy_29" x="22.8" y="0" width="148.8" height="96.4" filterUnits="userSpaceOnUse">
      <feOffset dy="4" input="SourceAlpha"/>
      <feGaussianBlur result="blur"/>
      <feFlood flood-color="#2e5e95"/>
      <feComposite operator="in" in2="blur"/>
      <feComposite in="SourceGraphic"/>
    </filter>
    <linearGradient id="linear-gradient-2" x1="0.5" y1="0.255" x2="0.5" y2="1" gradientUnits="objectBoundingBox">
      <stop offset="0" stop-color="#4a90e2"/>
      <stop offset="1" stop-color="#2e5e95"/>
    </linearGradient>
    <filter id="Rectangle" x="14.4" y="6" width="148.8" height="98.8" filterUnits="userSpaceOnUse">
      <feOffset dy="4" input="SourceAlpha"/>
      <feGaussianBlur result="blur-2"/>
      <feFlood flood-color="#2e5e95"/>
      <feComposite operator="in" in2="blur-2"/>
      <feComposite in="SourceGraphic"/>
    </filter>
    <linearGradient id="linear-gradient-3" x1="0.5" y1="0.255" x2="0.5" y2="1" gradientUnits="objectBoundingBox">
      <stop offset="0" stop-color="#6baaf4"/>
      <stop offset="1" stop-color="#4a90e2"/>
    </linearGradient>
    <filter id="Rectangle-2" x="0" y="15.6" width="156" height="96.4" filterUnits="userSpaceOnUse">
      <feOffset dy="4" input="SourceAlpha"/>
      <feGaussianBlur result="blur-3"/>
      <feFlood flood-color="#2e5e95"/>
      <feComposite operator="in" in2="blur-3"/>
      <feComposite in="SourceGraphic"/>
    </filter>
    <filter id="Rectangle-3" x="9.6" y="22.8" width="33.6" height="8.4" filterUnits="userSpaceOnUse">
      <feOffset input="SourceAlpha"/>
      <feGaussianBlur result="blur-4"/>
      <feFlood flood-opacity="0.502"/>
      <feComposite operator="in" in2="blur-4"/>
      <feComposite in="SourceGraphic"/>
    </filter>
    <linearGradient id="linear-gradient-4" x1="0.5" y1="0.45" x2="0.5" y2="1" gradientUnits="objectBoundingBox">
      <stop offset="0" stop-color="#fff" stop-opacity="0.149"/>
      <stop offset="1" stop-opacity="0.149"/>
    </linearGradient>
    <filter id="Rectangle_Copy_14" x="9.6" y="44.4" width="33.6" height="8.4" filterUnits="userSpaceOnUse">
      <feOffset input="SourceAlpha"/>
      <feGaussianBlur result="blur-5"/>
      <feFlood flood-opacity="0.502"/>
      <feComposite operator="in" in2="blur-5"/>
      <feComposite in="SourceGraphic"/>
    </filter>
    <filter id="Rectangle_Copy_17" x="9.6" y="56.4" width="33.6" height="8.4" filterUnits="userSpaceOnUse">
      <feOffset input="SourceAlpha"/>
      <feGaussianBlur result="blur-6"/>
      <feFlood flood-opacity="0.502"/>
      <feComposite operator="in" in2="blur-6"/>
      <feComposite in="SourceGraphic"/>
    </filter>
    <filter id="Rectangle_Copy_23" x="9.6" y="81.6" width="33.6" height="8.4" filterUnits="userSpaceOnUse">
      <feOffset input="SourceAlpha"/>
      <feGaussianBlur result="blur-7"/>
      <feFlood flood-opacity="0.502"/>
      <feComposite operator="in" in2="blur-7"/>
      <feComposite in="SourceGraphic"/>
    </filter>
    <filter id="Rectangle_Copy_20" x="9.6" y="69.6" width="33.6" height="8.4" filterUnits="userSpaceOnUse">
      <feOffset input="SourceAlpha"/>
      <feGaussianBlur result="blur-8"/>
      <feFlood flood-opacity="0.502"/>
      <feComposite operator="in" in2="blur-8"/>
      <feComposite in="SourceGraphic"/>
    </filter>
    <filter id="Rectangle_Copy_24" x="9.6" y="93.6" width="33.6" height="8.4" filterUnits="userSpaceOnUse">
      <feOffset input="SourceAlpha"/>
      <feGaussianBlur result="blur-9"/>
      <feFlood flood-opacity="0.502"/>
      <feComposite operator="in" in2="blur-9"/>
      <feComposite in="SourceGraphic"/>
    </filter>
    <filter id="Rectangle_Copy_6" x="61.2" y="22.8" width="33.6" height="8.4" filterUnits="userSpaceOnUse">
      <feOffset input="SourceAlpha"/>
      <feGaussianBlur result="blur-10"/>
      <feFlood flood-opacity="0.502"/>
      <feComposite operator="in" in2="blur-10"/>
      <feComposite in="SourceGraphic"/>
    </filter>
    <filter id="Rectangle_Copy_15" x="61.2" y="44.4" width="33.6" height="8.4" filterUnits="userSpaceOnUse">
      <feOffset input="SourceAlpha"/>
      <feGaussianBlur result="blur-11"/>
      <feFlood flood-opacity="0.502"/>
      <feComposite operator="in" in2="blur-11"/>
      <feComposite in="SourceGraphic"/>
    </filter>
    <filter id="Rectangle_Copy_18" x="61.2" y="56.4" width="33.6" height="8.4" filterUnits="userSpaceOnUse">
      <feOffset input="SourceAlpha"/>
      <feGaussianBlur result="blur-12"/>
      <feFlood flood-opacity="0.502"/>
      <feComposite operator="in" in2="blur-12"/>
      <feComposite in="SourceGraphic"/>
    </filter>
    <filter id="Rectangle_Copy_25" x="61.2" y="81.6" width="33.6" height="8.4" filterUnits="userSpaceOnUse">
      <feOffset input="SourceAlpha"/>
      <feGaussianBlur result="blur-13"/>
      <feFlood flood-opacity="0.502"/>
      <feComposite operator="in" in2="blur-13"/>
      <feComposite in="SourceGraphic"/>
    </filter>
    <filter id="Rectangle_Copy_21" x="61.2" y="69.6" width="33.6" height="8.4" filterUnits="userSpaceOnUse">
      <feOffset input="SourceAlpha"/>
      <feGaussianBlur result="blur-14"/>
      <feFlood flood-opacity="0.502"/>
      <feComposite operator="in" in2="blur-14"/>
      <feComposite in="SourceGraphic"/>
    </filter>
    <filter id="Rectangle_Copy_26" x="61.2" y="93.6" width="33.6" height="8.4" filterUnits="userSpaceOnUse">
      <feOffset input="SourceAlpha"/>
      <feGaussianBlur result="blur-15"/>
      <feFlood flood-opacity="0.502"/>
      <feComposite operator="in" in2="blur-15"/>
      <feComposite in="SourceGraphic"/>
    </filter>
    <filter id="Rectangle_Copy_13" x="115.2" y="22.8" width="33.6" height="8.4" filterUnits="userSpaceOnUse">
      <feOffset input="SourceAlpha"/>
      <feGaussianBlur result="blur-16"/>
      <feFlood flood-opacity="0.502"/>
      <feComposite operator="in" in2="blur-16"/>
      <feComposite in="SourceGraphic"/>
    </filter>
    <filter id="Rectangle_Copy_16" x="115.2" y="44.4" width="33.6" height="8.4" filterUnits="userSpaceOnUse">
      <feOffset input="SourceAlpha"/>
      <feGaussianBlur result="blur-17"/>
      <feFlood flood-opacity="0.502"/>
      <feComposite operator="in" in2="blur-17"/>
      <feComposite in="SourceGraphic"/>
    </filter>
    <filter id="Rectangle_Copy_19" x="115.2" y="56.4" width="33.6" height="8.4" filterUnits="userSpaceOnUse">
      <feOffset input="SourceAlpha"/>
      <feGaussianBlur result="blur-18"/>
      <feFlood flood-opacity="0.502"/>
      <feComposite operator="in" in2="blur-18"/>
      <feComposite in="SourceGraphic"/>
    </filter>
    <filter id="Rectangle_Copy_27" x="115.2" y="81.6" width="33.6" height="8.4" filterUnits="userSpaceOnUse">
      <feOffset input="SourceAlpha"/>
      <feGaussianBlur result="blur-19"/>
      <feFlood flood-opacity="0.502"/>
      <feComposite operator="in" in2="blur-19"/>
      <feComposite in="SourceGraphic"/>
    </filter>
    <filter id="Rectangle_Copy_22" x="115.2" y="69.6" width="33.6" height="8.4" filterUnits="userSpaceOnUse">
      <feOffset input="SourceAlpha"/>
      <feGaussianBlur result="blur-20"/>
      <feFlood flood-opacity="0.502"/>
      <feComposite operator="in" in2="blur-20"/>
      <feComposite in="SourceGraphic"/>
    </filter>
    <filter id="Rectangle_Copy_28" x="115.2" y="93.6" width="33.6" height="8.4" filterUnits="userSpaceOnUse">
      <feOffset input="SourceAlpha"/>
      <feGaussianBlur result="blur-21"/>
      <feFlood flood-opacity="0.502"/>
      <feComposite operator="in" in2="blur-21"/>
      <feComposite in="SourceGraphic"/>
    </filter>
  </defs>
  <g transform="matrix(1, 0, 0, 1, 0, 0)" filter="url(#Rectangle_Copy_29)">
    <rect id="Rectangle_Copy_29-2" data-name="Rectangle Copy 29" width="148.8" height="92.4" rx="6" transform="translate(22.8)" fill="url(#linear-gradient)"/>
  </g>
  <g transform="matrix(1, 0, 0, 1, 0, 0)" filter="url(#Rectangle)">
    <rect id="Rectangle-4" data-name="Rectangle" width="148.8" height="94.8" rx="6" transform="translate(14.4 6)" fill="url(#linear-gradient-2)"/>
  </g>
  <g id="Group" transform="translate(0 14.4)">
    <g transform="matrix(1, 0, 0, 1, 0, -14.4)" filter="url(#Rectangle-2)">
      <rect id="Rectangle-5" data-name="Rectangle" width="156" height="92.4" rx="6" transform="translate(0 15.6)" fill="url(#linear-gradient-3)"/>
    </g>
    <path id="Rectangle-6" data-name="Rectangle" d="M6,0H150a6,6,0,0,1,6,6V25.2a0,0,0,0,1,0,0H0a0,0,0,0,1,0,0V6A6,6,0,0,1,6,0Z" fill="#2e5e95"/>
    <rect id="Rectangle-7" data-name="Rectangle" width="2.4" height="68.4" transform="translate(51.6 25.2)" fill="#2e5e95"/>
    <rect id="Rectangle_Copy" data-name="Rectangle Copy" width="2.4" height="68.4" transform="translate(103.2 25.2)" fill="#2e5e95"/>
    <g id="Rectangle-8" data-name="Rectangle">
      <g transform="matrix(1, 0, 0, 1, 0, -14.4)" filter="url(#Rectangle-3)">
        <rect id="Rectangle-9" data-name="Rectangle" width="33.6" height="8.4" rx="4.2" transform="translate(9.6 22.8)" fill="#e0e1e7"/>
      </g>
      <rect id="Rectangle-10" data-name="Rectangle" width="33.6" height="8.4" rx="4.2" transform="translate(9.6 8.4)" fill="url(#linear-gradient-4)"/>
    </g>
    <g transform="matrix(1, 0, 0, 1, 0, -14.4)" filter="url(#Rectangle_Copy_14)">
      <rect id="Rectangle_Copy_14-2" data-name="Rectangle Copy 14" width="33.6" height="8.4" rx="4.2" transform="translate(9.6 44.4)" fill="#2e5e95"/>
    </g>
    <g transform="matrix(1, 0, 0, 1, 0, -14.4)" filter="url(#Rectangle_Copy_17)">
      <rect id="Rectangle_Copy_17-2" data-name="Rectangle Copy 17" width="33.6" height="8.4" rx="4.2" transform="translate(9.6 56.4)" fill="#2e5e95"/>
    </g>
    <g transform="matrix(1, 0, 0, 1, 0, -14.4)" filter="url(#Rectangle_Copy_23)">
      <rect id="Rectangle_Copy_23-2" data-name="Rectangle Copy 23" width="33.6" height="8.4" rx="4.2" transform="translate(9.6 81.6)" fill="#2e5e95"/>
    </g>
    <g transform="matrix(1, 0, 0, 1, 0, -14.4)" filter="url(#Rectangle_Copy_20)">
      <rect id="Rectangle_Copy_20-2" data-name="Rectangle Copy 20" width="33.6" height="8.4" rx="4.2" transform="translate(9.6 69.6)" fill="#2e5e95"/>
    </g>
    <g transform="matrix(1, 0, 0, 1, 0, -14.4)" filter="url(#Rectangle_Copy_24)">
      <rect id="Rectangle_Copy_24-2" data-name="Rectangle Copy 24" width="33.6" height="8.4" rx="4.2" transform="translate(9.6 93.6)" fill="#2e5e95"/>
    </g>
    <g id="Rectangle_Copy_6-2" data-name="Rectangle Copy 6">
      <g transform="matrix(1, 0, 0, 1, 0, -14.4)" filter="url(#Rectangle_Copy_6)">
        <rect id="Rectangle_Copy_6-3" data-name="Rectangle Copy 6" width="33.6" height="8.4" rx="4.2" transform="translate(61.2 22.8)" fill="#e0e1e7"/>
      </g>
      <rect id="Rectangle_Copy_6-4" data-name="Rectangle Copy 6" width="33.6" height="8.4" rx="4.2" transform="translate(61.2 8.4)" fill="url(#linear-gradient-4)"/>
    </g>
    <g transform="matrix(1, 0, 0, 1, 0, -14.4)" filter="url(#Rectangle_Copy_15)">
      <rect id="Rectangle_Copy_15-2" data-name="Rectangle Copy 15" width="33.6" height="8.4" rx="4.2" transform="translate(61.2 44.4)" fill="#2e5e95"/>
    </g>
    <g transform="matrix(1, 0, 0, 1, 0, -14.4)" filter="url(#Rectangle_Copy_18)">
      <rect id="Rectangle_Copy_18-2" data-name="Rectangle Copy 18" width="33.6" height="8.4" rx="4.2" transform="translate(61.2 56.4)" fill="#2e5e95"/>
    </g>
    <g transform="matrix(1, 0, 0, 1, 0, -14.4)" filter="url(#Rectangle_Copy_25)">
      <rect id="Rectangle_Copy_25-2" data-name="Rectangle Copy 25" width="33.6" height="8.4" rx="4.2" transform="translate(61.2 81.6)" fill="#2e5e95"/>
    </g>
    <g transform="matrix(1, 0, 0, 1, 0, -14.4)" filter="url(#Rectangle_Copy_21)">
      <rect id="Rectangle_Copy_21-2" data-name="Rectangle Copy 21" width="33.6" height="8.4" rx="4.2" transform="translate(61.2 69.6)" fill="#2e5e95"/>
    </g>
    <g transform="matrix(1, 0, 0, 1, 0, -14.4)" filter="url(#Rectangle_Copy_26)">
      <rect id="Rectangle_Copy_26-2" data-name="Rectangle Copy 26" width="33.6" height="8.4" rx="4.2" transform="translate(61.2 93.6)" fill="#2e5e95"/>
    </g>
    <g id="Rectangle_Copy_13-2" data-name="Rectangle Copy 13">
      <g transform="matrix(1, 0, 0, 1, 0, -14.4)" filter="url(#Rectangle_Copy_13)">
        <rect id="Rectangle_Copy_13-3" data-name="Rectangle Copy 13" width="33.6" height="8.4" rx="4.2" transform="translate(115.2 22.8)" fill="#e0e1e7"/>
      </g>
      <rect id="Rectangle_Copy_13-4" data-name="Rectangle Copy 13" width="33.6" height="8.4" rx="4.2" transform="translate(115.2 8.4)" fill="url(#linear-gradient-4)"/>
    </g>
    <g transform="matrix(1, 0, 0, 1, 0, -14.4)" filter="url(#Rectangle_Copy_16)">
      <rect id="Rectangle_Copy_16-2" data-name="Rectangle Copy 16" width="33.6" height="8.4" rx="4.2" transform="translate(115.2 44.4)" fill="#2e5e95"/>
    </g>
    <g transform="matrix(1, 0, 0, 1, 0, -14.4)" filter="url(#Rectangle_Copy_19)">
      <rect id="Rectangle_Copy_19-2" data-name="Rectangle Copy 19" width="33.6" height="8.4" rx="4.2" transform="translate(115.2 56.4)" fill="#2e5e95"/>
    </g>
    <g transform="matrix(1, 0, 0, 1, 0, -14.4)" filter="url(#Rectangle_Copy_27)">
      <rect id="Rectangle_Copy_27-2" data-name="Rectangle Copy 27" width="33.6" height="8.4" rx="4.2" transform="translate(115.2 81.6)" fill="#2e5e95"/>
    </g>
    <g transform="matrix(1, 0, 0, 1, 0, -14.4)" filter="url(#Rectangle_Copy_22)">
      <rect id="Rectangle_Copy_22-2" data-name="Rectangle Copy 22" width="33.6" height="8.4" rx="4.2" transform="translate(115.2 69.6)" fill="#2e5e95"/>
    </g>
    <g transform="matrix(1, 0, 0, 1, 0, -14.4)" filter="url(#Rectangle_Copy_28)">
      <rect id="Rectangle_Copy_28-2" data-name="Rectangle Copy 28" width="33.6" height="8.4" rx="4.2" transform="translate(115.2 93.6)" fill="#2e5e95"/>
    </g>
  </g>
  <g id="Loupe" transform="translate(84 33.6)">
    <path id="Combined_Shape" data-name="Combined Shape" d="M26.4,54a25.732,25.732,0,0,1-10.276-2.122,26.287,26.287,0,0,1-8.391-5.786A26.952,26.952,0,0,1,2.075,37.51a27.658,27.658,0,0,1,0-21.02A26.952,26.952,0,0,1,7.732,7.908a26.287,26.287,0,0,1,8.391-5.786,25.946,25.946,0,0,1,20.552,0,26.287,26.287,0,0,1,8.392,5.786,26.951,26.951,0,0,1,5.658,8.582,27.658,27.658,0,0,1,0,21.02,26.951,26.951,0,0,1-5.658,8.582,26.287,26.287,0,0,1-8.392,5.786A25.734,25.734,0,0,1,26.4,54ZM24,6a20.966,20.966,0,0,0-8.408,1.745A21.5,21.5,0,0,0,8.727,12.5,22.169,22.169,0,0,0,4.1,19.559a22.844,22.844,0,0,0,0,17.282A22.171,22.171,0,0,0,8.727,43.9a21.505,21.505,0,0,0,6.866,4.758,21.132,21.132,0,0,0,16.816,0A21.505,21.505,0,0,0,39.274,43.9,22.171,22.171,0,0,0,43.9,36.841a22.844,22.844,0,0,0,0-17.282A22.169,22.169,0,0,0,39.274,12.5a21.5,21.5,0,0,0-6.866-4.757A20.966,20.966,0,0,0,24,6Z" transform="translate(2.4)" fill="#dc951f"/>
    <path id="Combined_Shape-2" data-name="Combined Shape" d="M26.4,54a25.732,25.732,0,0,1-10.276-2.122,26.287,26.287,0,0,1-8.391-5.786A26.952,26.952,0,0,1,2.075,37.51a27.658,27.658,0,0,1,0-21.02A26.952,26.952,0,0,1,7.732,7.908a26.287,26.287,0,0,1,8.391-5.786,25.946,25.946,0,0,1,20.552,0,26.287,26.287,0,0,1,8.392,5.786,26.951,26.951,0,0,1,5.658,8.582,27.658,27.658,0,0,1,0,21.02,26.951,26.951,0,0,1-5.658,8.582,26.287,26.287,0,0,1-8.392,5.786A25.734,25.734,0,0,1,26.4,54Zm0-48a20.966,20.966,0,0,0-8.408,1.745A21.5,21.5,0,0,0,11.126,12.5,22.169,22.169,0,0,0,6.5,19.559a22.844,22.844,0,0,0,0,17.282A22.171,22.171,0,0,0,11.126,43.9a21.505,21.505,0,0,0,6.866,4.758,21.132,21.132,0,0,0,16.816,0A21.505,21.505,0,0,0,41.673,43.9,22.171,22.171,0,0,0,46.3,36.841a22.844,22.844,0,0,0,0-17.282A22.169,22.169,0,0,0,41.673,12.5a21.5,21.5,0,0,0-6.866-4.757A20.966,20.966,0,0,0,26.4,6Z" fill="#f5a623"/>
    <path id="Combined_Shape-3" data-name="Combined Shape" d="M32.025,41.648v0A21.878,21.878,0,0,0,38.4,33.862a24.03,24.03,0,0,0,.8-19.1A22.33,22.33,0,0,0,34.825,7.7a20.329,20.329,0,0,0-6.484-4.758A18.861,18.861,0,0,0,20.4,1.2,19.468,19.468,0,0,0,6.16,7.5,23.027,23.027,0,0,0,.008,22.792C0,22.6,0,22.4,0,22.2a22.592,22.592,0,0,1,1.7-8.641A22.171,22.171,0,0,1,6.326,6.5a21.506,21.506,0,0,1,6.866-4.758,21.132,21.132,0,0,1,16.816,0A21.506,21.506,0,0,1,36.874,6.5,22.171,22.171,0,0,1,41.5,13.559a22.791,22.791,0,0,1-1.4,20.094A21.985,21.985,0,0,1,32.025,41.648Z" transform="translate(6 4.8)" fill="#ffbe54"/>
    <path id="Combined_Shape-4" data-name="Combined Shape" d="M13.364,42.729A21.724,21.724,0,0,1,3.745,34.7,22.771,22.771,0,0,1,1.7,13.559,22.171,22.171,0,0,1,6.326,6.5a21.506,21.506,0,0,1,6.866-4.758A21.126,21.126,0,0,1,32.217,2.862a21.133,21.133,0,0,0-16.624.082A21.505,21.505,0,0,0,8.727,7.7,22.171,22.171,0,0,0,4.1,14.759,22.793,22.793,0,0,0,5.432,34.748a22.012,22.012,0,0,0,7.933,7.98Z" transform="translate(2.4 4.8)" fill="#dc951f"/>
    <g id="Group_7" data-name="Group 7" transform="translate(37.2 48)">
      <g id="Group_6" data-name="Group 6" transform="translate(1.2 2.4)">
        <path id="Rectangle-11" data-name="Rectangle" d="M0,4.03,7.522,0,19.2,18.77,11.678,22.8Z" transform="translate(0 1.2)" fill="#f5a623"/>
        <path id="Rectangle-12" data-name="Rectangle" d="M0,2.343,3.682,0,14.4,20.457,10.718,22.8Z" transform="translate(3.6)" fill="rgba(0,0,0,0.1)"/>
      </g>
      <g id="Group_6_Copy" data-name="Group 6 Copy">
        <path id="Rectangle-13" data-name="Rectangle" d="M0,3.345,5.693,0,7.2,2.655,1.507,6Z" fill="#f5a623"/>
        <path id="Rectangle-14" data-name="Rectangle" d="M0,1.466,3.232,0,4.8,2.134,1.568,3.6Z" transform="translate(2.4 1.2)" fill="rgba(0,0,0,0.1)"/>
      </g>
    </g>
    <path id="Oval" d="M16.8,0C7.522,0,0,6.984,0,15.6" transform="translate(10.8 12)" fill="none" stroke="#fff" stroke-linecap="round" stroke-miterlimit="10" stroke-width="9.6" opacity="0.5"/>
  </g>
</svg>
