<?xml version="1.0" encoding="UTF-8"?>
<svg width="42px" height="56px" viewBox="0 0 42 56" version="1.1" xmlns="http://www.w3.org/2000/svg" xmlns:xlink="http://www.w3.org/1999/xlink">
    <title>- Illustration : interface</title>
    <defs>
        <rect id="path-1" x="0" y="1" width="47.6" height="23.7" rx="2"></rect>
        <filter x="-1.1%" y="-2.1%" width="102.1%" height="104.2%" filterUnits="objectBoundingBox" id="filter-2">
            <feMorphology radius="0.5" operator="dilate" in="SourceAlpha" result="shadowSpreadOuter1"></feMorphology>
            <feOffset dx="0" dy="0" in="shadowSpreadOuter1" result="shadowOffsetOuter1"></feOffset>
            <feComposite in="shadowOffsetOuter1" in2="SourceAlpha" operator="out" result="shadowOffsetOuter1"></feComposite>
            <feColorMatrix values="0 0 0 0 0.180392157   0 0 0 0 0.368627451   0 0 0 0 0.584313725  0 0 0 1 0" type="matrix" in="shadowOffsetOuter1"></feColorMatrix>
        </filter>
        <rect id="path-3" x="0" y="0" width="36.2" height="20.4" rx="0.9"></rect>
        <linearGradient x1="100%" y1="50%" x2="0%" y2="50%" id="linearGradient-5">
            <stop stop-color="#9ACC68" offset="0%"></stop>
            <stop stop-color="#498749" offset="100%"></stop>
        </linearGradient>
        <circle id="path-6" cx="44.2" cy="12.9" r="2.2"></circle>
        <filter x="0.0%" y="0.0%" width="100.0%" height="100.0%" filterUnits="objectBoundingBox" id="filter-7">
            <feOffset dx="0" dy="0" in="SourceAlpha" result="shadowOffsetOuter1"></feOffset>
            <feColorMatrix values="0 0 0 0 1   0 0 0 0 1   0 0 0 0 1  0 0 0 0.5 0" type="matrix" in="shadowOffsetOuter1"></feColorMatrix>
        </filter>
        <linearGradient x1="100%" y1="50%" x2="-2.22044605e-14%" y2="50%" id="linearGradient-8">
            <stop stop-color="#67943A" offset="0%"></stop>
            <stop stop-color="#356703" offset="100%"></stop>
        </linearGradient>
        <rect id="path-9" x="1.8" y="9.7" width="1" height="4.7" rx="0.45"></rect>
        <filter x="0.0%" y="0.0%" width="100.0%" height="100.0%" filterUnits="objectBoundingBox" id="filter-10">
            <feOffset dx="0" dy="0" in="SourceAlpha" result="shadowOffsetOuter1"></feOffset>
            <feColorMatrix values="0 0 0 0 1   0 0 0 0 1   0 0 0 0 1  0 0 0 0.5 0" type="matrix" in="shadowOffsetOuter1"></feColorMatrix>
        </filter>
        <path d="M7.9,0 L12.5,0 C12.6656854,-3.04359188e-17 12.8,0.134314575 12.8,0.3 L12.8,0.6 L12.8,0.6 L7.6,0.6 L7.6,0.3 C7.6,0.134314575 7.73431458,3.04359188e-17 7.9,0 Z" id="path-11"></path>
        <filter x="0.0%" y="0.0%" width="100.0%" height="100.0%" filterUnits="objectBoundingBox" id="filter-12">
            <feOffset dx="0" dy="0" in="SourceAlpha" result="shadowOffsetOuter1"></feOffset>
            <feColorMatrix values="0 0 0 0 0.180392157   0 0 0 0 0.368627451   0 0 0 0 0.584313725  0 0 0 1 0" type="matrix" in="shadowOffsetOuter1"></feColorMatrix>
        </filter>
    </defs>
    <g id="Page-1" stroke="none" stroke-width="1" fill="none" fill-rule="evenodd">
        <g id="FIOI-Home" transform="translate(-350.000000, -237.000000)">
            <g id="Header" transform="translate(0.000000, -13.000000)">
                <g id="Illustration" transform="translate(21.000000, 0.551616)">
                    <g id="--Illustration-:-interface" transform="translate(350.000000, 277.448384) rotate(110.000000) translate(-350.000000, -277.448384) translate(326.000000, 264.448384)">
                        <g id="Rectangle">
                            <use fill="black" fill-opacity="1" filter="url(#filter-2)" xlink:href="#path-1"></use>
                            <rect stroke="#4E8D0F" stroke-width="0.5" fill="#9ACC68" fill-rule="evenodd" x="-0.25" y="0.75" width="48.1" height="24.2" rx="2"></rect>
                        </g>
                        <rect id="Rectangle" fill="#4E8D0F" x="4.4" y="2.7" width="36.2" height="20.4" rx="0.9"></rect>
                        <rect id="Rectangle" fill="#9AC0EC" x="4.9" y="2.7" width="36.2" height="20.4" rx="0.9"></rect>
                        <g id="Illustrat" transform="translate(4.700000, 2.700000)">
                            <mask id="mask-4" fill="white">
                                <use xlink:href="#path-3"></use>
                            </mask>
                            <use id="Rectangle" fill="#4B7B1A" xlink:href="#path-3"></use>
                        </g>
                        <g id="Oval">
                            <use fill="black" fill-opacity="1" filter="url(#filter-7)" xlink:href="#path-6"></use>
                            <use fill="url(#linearGradient-5)" fill-rule="evenodd" xlink:href="#path-6"></use>
                        </g>
                        <g id="Rectangle">
                            <use fill="black" fill-opacity="1" filter="url(#filter-10)" xlink:href="#path-9"></use>
                            <use fill="url(#linearGradient-8)" fill-rule="evenodd" xlink:href="#path-9"></use>
                        </g>
                        <rect id="Rectangle" fill="#2C5503" x="6.5" y="0.6" width="1" height="1"></rect>
                        <rect id="Rectangle-Copy-10" fill="#2C5503" x="37.8" y="0.6" width="1" height="1"></rect>
                        <rect id="Rectangle-Copy-5" fill="#2C5503" x="6.5" y="24.7" width="1" height="1"></rect>
                        <rect id="Rectangle-Copy-11" fill="#2C5503" x="37.8" y="24.7" width="1" height="1"></rect>
                        <g id="Rectangle">
                            <use fill="black" fill-opacity="1" filter="url(#filter-12)" xlink:href="#path-11"></use>
                            <use fill="#4E8D0F" fill-rule="evenodd" xlink:href="#path-11"></use>
                        </g>
                        <path d="M8.43969262,25.0579799 L9.83969262,25.0579799 C10.005378,25.0579799 10.1396926,25.1922944 10.1396926,25.3579799 L10.1396926,25.6579799 L10.1396926,25.6579799 L8.13969262,25.6579799 L8.13969262,25.3579799 C8.13969262,25.1922944 8.2740072,25.0579799 8.43969262,25.0579799 Z" id="Rectangle-Copy-12" fill="#4E8D0F" transform="translate(9.139693, 25.357980) scale(1, -1) translate(-9.139693, -25.357980) "></path>
                        <path d="M11.4396926,25.0579799 L12.8396926,25.0579799 C13.005378,25.0579799 13.1396926,25.1922944 13.1396926,25.3579799 L13.1396926,25.6579799 L13.1396926,25.6579799 L11.1396926,25.6579799 L11.1396926,25.3579799 C11.1396926,25.1922944 11.2740072,25.0579799 11.4396926,25.0579799 Z" id="Rectangle-Copy-21" fill="#4E8D0F" transform="translate(12.139693, 25.357980) scale(1, -1) translate(-12.139693, -25.357980) "></path>
                    </g>
                </g>
            </g>
        </g>
    </g>
</svg>