<svg xmlns="http://www.w3.org/2000/svg" xmlns:xlink="http://www.w3.org/1999/xlink" width="196" height="84.854" viewBox="0 0 196 84.854">
  <defs>
    <clipPath id="clip-path">
      <path id="Clip_8" data-name="Clip 8" d="M0,0H54.758V84.854H0Z" transform="translate(0 0.146)" fill="none"/>
    </clipPath>
  </defs>
  <g id="Illustration-Alkindi" transform="translate(0 -0.146)">
    <path id="Fill_1" data-name="Fill 1" d="M2,1A1,1,0,1,0,1,2,1,1,0,0,0,2,1" transform="translate(36 46)" fill="#ed1846"/>
    <path id="Fill_3" data-name="Fill 3" d="M1,0A1,1,0,1,0,2,1,1,1,0,0,0,1,0" transform="translate(194 46)" fill="#ed1846"/>
    <path id="Fill_5" data-name="Fill 5" d="M155.829,11a1.192,1.192,0,0,1-1.16-1.1l-.013-.056a3.741,3.741,0,0,0-3.689-3.036H84.244a5.326,5.326,0,0,1-2.279,1.332,3.9,3.9,0,0,1-6.891,0,5.326,5.326,0,0,1-2.279-1.332H6.023A3.735,3.735,0,0,0,2.344,9.849l-.017.114A1.19,1.19,0,0,1,1.172,11,1.207,1.207,0,0,1,0,9.763a1.322,1.322,0,0,1,.03-.271A5.926,5.926,0,0,1,2.778,5.478,8.134,8.134,0,0,1,.139,1.768a1.255,1.255,0,0,1-.118-.53A1.207,1.207,0,0,1,1.193,0,1.164,1.164,0,0,1,2.273.772l.038.111c.039.133.979,3.258,3.873,3.577H72.611A4.933,4.933,0,0,1,75.074,2.9a3.9,3.9,0,0,1,6.891,0,4.936,4.936,0,0,1,2.462,1.555h66.4c2.86-.316,3.821-3.443,3.861-3.576l.034-.117h0l.005,0A1.163,1.163,0,0,1,155.808,0a1.207,1.207,0,0,1,1.172,1.237,1.276,1.276,0,0,1-.123.543,8.1,8.1,0,0,1-2.635,3.7,5.933,5.933,0,0,1,2.75,4.022,1.309,1.309,0,0,1,.028.263A1.206,1.206,0,0,1,155.829,11ZM78.519,2.906a2.483,2.483,0,0,0-2.313,2.618,2.331,2.331,0,1,0,4.626,0A2.483,2.483,0,0,0,78.519,2.906Z" transform="translate(37 42)" fill="#ed1846"/>
    <g id="Group_9" data-name="Group 9">
      <path id="Clip_8-2" data-name="Clip 8" d="M0,0H54.758V84.854H0Z" transform="translate(0 0.146)" fill="none"/>
      <g id="Group_9-2" data-name="Group 9" clip-path="url(#clip-path)">
        <path id="Fill_7" data-name="Fill 7" d="M7.722,84.854a.544.544,0,0,1-.193-.036.53.53,0,0,1-.3-.273.432.432,0,0,1,.219-.582,1.2,1.2,0,0,1-.365-.887A1.85,1.85,0,0,1,6.712,81.4a3.8,3.8,0,0,1-1.059-4.042,3.324,3.324,0,0,1,.309-.607,13.747,13.747,0,0,1-3.942-4.565A10.437,10.437,0,0,1,.786,66.8a2.738,2.738,0,0,1-.548-3.124A2.814,2.814,0,0,1,2.613,61.7q.053,0,.105,0A10.312,10.312,0,0,1,6.7,58.695a13.325,13.325,0,0,1,5.284-1.059c.377,0,.761.015,1.14.044a3.178,3.178,0,0,1,2.954-1.422,5.655,5.655,0,0,1,.641.037L37.25,2.1a1.576,1.576,0,0,1,.685-.532c0-.013.007-.027.011-.04a.466.466,0,0,1,.015-.054A1.27,1.27,0,0,1,39.074.622.443.443,0,0,1,39.062.29.464.464,0,0,1,39.507,0,.544.544,0,0,1,39.7.036a.488.488,0,0,1,.311.613.444.444,0,0,1-.233.242,1.272,1.272,0,0,1,.274,1.374,1.246,1.246,0,0,1,.134.868L37.768,9.516a1.36,1.36,0,0,0,.828.292.822.822,0,0,0,.82-.524c.089-.235.336-.36.713-.36a2.313,2.313,0,0,1,.487.058l1.075-2.838a.285.285,0,0,1,.268-.185.288.288,0,0,1,.1.019l5.612,2.128a.286.286,0,0,1,.166.37l-1.5,3.962c.778-.518,2.41-1.78,4.061-3.143a.286.286,0,0,1,.182-.066.28.28,0,0,1,.1.019l3.889,1.475a.287.287,0,0,1,.167.369l-3.247,8.572a.289.289,0,0,1-.119.144,24.958,24.958,0,0,0-2.68,1.8,24.921,24.921,0,0,0,.814,3.126.294.294,0,0,1-.006.186l-3.247,8.573a.286.286,0,0,1-.37.166L42,32.183a.285.285,0,0,1-.183-.232,45.409,45.409,0,0,0-.892-5.212l-1.567,4.135a.287.287,0,0,1-.267.185.283.283,0,0,1-.1-.019l-5.612-2.128a.288.288,0,0,1-.166-.37l1.206-3.183c-.6-.231-.871-.569-.735-.927a.918.918,0,0,0-.09-.884,1.177,1.177,0,0,0-.948-.482L19.63,57.4c1.364.952,2.064,2.3,1.782,3.426,3.409,2.58,5.327,6.282,5.129,9.9a2.753,2.753,0,0,1,.572,3.144,2.815,2.815,0,0,1-2.375,1.98c-.045,0-.091,0-.136-.006a10.321,10.321,0,0,1-3.982,3A13.325,13.325,0,0,1,15.342,79.9c-.4,0-.8-.016-1.2-.049a3.293,3.293,0,0,1-.17.658A3.792,3.792,0,0,1,10.5,82.834a1.849,1.849,0,0,1-1.541,1.029,1.174,1.174,0,0,1-.807.369.441.441,0,0,1,.012.332A.462.462,0,0,1,7.722,84.854Zm.816-4.747h0a2.179,2.179,0,0,1,.777.144,2.1,2.1,0,0,1,1.233,1.205,2.416,2.416,0,0,0,2.14-1.432,1.959,1.959,0,0,0,.093-.345A15.912,15.912,0,0,1,7.1,77.524a2.015,2.015,0,0,0-.159.319,2.39,2.39,0,0,0,.654,2.492A2.042,2.042,0,0,1,8.537,80.106Zm9.184-8.452c-2.764,0-4.93,1.186-5.654,3.1a4.008,4.008,0,0,0-.225.923,4.819,4.819,0,0,1,1.428,1.187,12.493,12.493,0,0,0,1.65.174,2.576,2.576,0,0,1,.151-1.145,3.489,3.489,0,0,1,3.473-1.942,6.377,6.377,0,0,1,2.234.423,6.609,6.609,0,0,1,.9.424,6.375,6.375,0,0,0,1.326-1.732,11.247,11.247,0,0,0-1.472-.684A10.885,10.885,0,0,0,17.722,71.654ZM9.361,75.024a5.059,5.059,0,0,1,1.092.122,3.934,3.934,0,0,0,.443-.84c1.089-2.875-1.386-6.489-5.516-8.056a11.464,11.464,0,0,0-1.547-.463l-.014.024a6.4,6.4,0,0,0-.148,2.151,6.523,6.523,0,0,1,.956.28c2.473.939,3.938,3.147,3.266,4.923a2.577,2.577,0,0,1-.644.958,12.259,12.259,0,0,0,1.35.964A4.6,4.6,0,0,1,9.361,75.024Zm-.114-7.977a9.841,9.841,0,0,1,1.945,2.137,7,7,0,0,1,1.17,3.02,7.012,7.012,0,0,1,2.878-1.485,9.685,9.685,0,0,1,2.5-.316c.123,0,.249,0,.373.006a9.843,9.843,0,0,1-1.945-2.137A7,7,0,0,1,15,65.252a7,7,0,0,1-2.877,1.486,9.707,9.707,0,0,1-2.493.315c-.125,0-.253,0-.379-.007Zm7.538-4.553h0a4.018,4.018,0,0,0-.323.657c-1.089,2.874,1.386,6.488,5.516,8.055a11.5,11.5,0,0,0,1.544.462,6.394,6.394,0,0,0,.127-2.182,6.616,6.616,0,0,1-.916-.272,5.852,5.852,0,0,1-2.816-2.147,3.031,3.031,0,0,1-.451-2.776,2.583,2.583,0,0,1,.585-.9,12.245,12.245,0,0,0-1.021-.746,4.9,4.9,0,0,1-.73.053,5.981,5.981,0,0,1-1.516-.2Zm-11.074.188A6.416,6.416,0,0,0,4.361,64.4a11.427,11.427,0,0,0,1.462.678,10.886,10.886,0,0,0,3.813.723c2.764,0,4.93-1.186,5.654-3.1A4.035,4.035,0,0,0,15.483,62a5.638,5.638,0,0,1-1.78-1.377,11.823,11.823,0,0,0-1.258-.118,2.579,2.579,0,0,1-.159,1.061,3.49,3.49,0,0,1-3.474,1.943,6.369,6.369,0,0,1-2.233-.423,6.486,6.486,0,0,1-.867-.4h0Z" transform="translate(0 0.146)" fill="#ed1846"/>
      </g>
    </g>
    <path id="Fill_10" data-name="Fill 10" d="M12.361,15.666H4.32a2.206,2.206,0,0,1-1.347-.425,1.253,1.253,0,0,1-.6-1.063V3.808a1.272,1.272,0,0,1,.6-1.062A2.294,2.294,0,0,1,4.32,2.333H19.815A1.07,1.07,0,0,0,21,1.167,1.071,1.071,0,0,0,19.815,0H4.32A4.544,4.544,0,0,0,1.368,1.022,3.474,3.474,0,0,0,0,3.808V14.178a3.463,3.463,0,0,0,1.354,2.786A4.564,4.564,0,0,0,4.32,18h8.041a1.07,1.07,0,0,0,1.185-1.167,1.071,1.071,0,0,0-1.185-1.167" transform="translate(54 23)" fill="#433c3e"/>
    <path id="Fill_12" data-name="Fill 12" d="M10.162,11H3.837a4.053,4.053,0,0,1-2.689-.953A2.985,2.985,0,0,1,0,7.7V3.3A2.982,2.982,0,0,1,1.14.947,4.064,4.064,0,0,1,3.837,0h6.325a4.07,4.07,0,0,1,2.7.947A2.986,2.986,0,0,1,14,3.3V7.7a2.954,2.954,0,0,1-1.207,2.4A4.07,4.07,0,0,1,10.162,11ZM3.837,2.234a1.463,1.463,0,0,0-.959.326A.917.917,0,0,0,2.5,3.3V7.7a.918.918,0,0,0,.378.746,1.467,1.467,0,0,0,.959.326h6.325a1.473,1.473,0,0,0,.961-.326A.92.92,0,0,0,11.5,7.7V3.3a.919.919,0,0,0-.378-.745,1.469,1.469,0,0,0-.961-.326Z" transform="translate(71 30)" fill="#433c3e"/>
    <path id="Fill_14" data-name="Fill 14" d="M9.941.946A3.615,3.615,0,0,0,7.436,0H3.564A3.8,3.8,0,0,0,2.013.318,1.134,1.134,0,0,0,1.161,0,1.034,1.034,0,0,0,0,1.11V9.89A1.034,1.034,0,0,0,1.161,11,1.034,1.034,0,0,0,2.321,9.89V3.3a.942.942,0,0,1,.351-.746,1.3,1.3,0,0,1,.892-.326H7.436a1.3,1.3,0,0,1,.892.326.943.943,0,0,1,.351.745V9.89A1.034,1.034,0,0,0,9.839,11,1.034,1.034,0,0,0,11,9.89V3.3A3.076,3.076,0,0,0,9.941.946" transform="translate(89 30)" fill="#433c3e"/>
    <path id="Fill_16" data-name="Fill 16" d="M12.751,0H3.837a4.053,4.053,0,0,0-2.69.953A2.983,2.983,0,0,0,0,3.305V7.7a2.984,2.984,0,0,0,1.141,2.358,4.065,4.065,0,0,0,2.7.946H7.3c.794,0,1.25-.4,1.25-1.11S8.09,8.766,7.3,8.766H3.837a1.466,1.466,0,0,1-.961-.326A.918.918,0,0,1,2.5,7.7V3.305a.919.919,0,0,1,.378-.746,1.468,1.468,0,0,1,.96-.326h8.913C13.545,2.233,14,1.824,14,1.11S13.545,0,12.751,0" transform="translate(103 30)" fill="#433c3e"/>
    <path id="Fill_18" data-name="Fill 18" d="M10.163,11H3.838a4.054,4.054,0,0,1-2.69-.953A2.985,2.985,0,0,1,0,7.7V3.3A2.982,2.982,0,0,1,1.141.947,4.061,4.061,0,0,1,3.838,0h6.325a4.069,4.069,0,0,1,2.7.947A2.986,2.986,0,0,1,14,3.3V7.7a2.954,2.954,0,0,1-1.207,2.4A4.069,4.069,0,0,1,10.163,11ZM3.838,2.234a1.463,1.463,0,0,0-.959.326A.918.918,0,0,0,2.5,3.3V7.7a.919.919,0,0,0,.379.746,1.467,1.467,0,0,0,.959.326h6.325a1.472,1.472,0,0,0,.96-.326A.919.919,0,0,0,11.5,7.7V3.3a.918.918,0,0,0-.377-.745,1.468,1.468,0,0,0-.96-.326Z" transform="translate(120 30)" fill="#433c3e"/>
    <path id="Fill_20" data-name="Fill 20" d="M12.751,0c-.794,0-1.25.4-1.25,1.11V7.695a.92.92,0,0,1-.378.746,1.467,1.467,0,0,1-.96.326H3.837a1.467,1.467,0,0,1-.96-.326A.909.909,0,0,1,2.5,7.695V1.11C2.5.4,2.044,0,1.249,0S0,.4,0,1.11V7.695a2.985,2.985,0,0,0,1.147,2.352A4.056,4.056,0,0,0,3.837,11h6.325a4.365,4.365,0,0,0,1.67-.318,1.274,1.274,0,0,0,.918.318C13.544,11,14,10.6,14,9.89V1.11C14,.4,13.544,0,12.751,0" transform="translate(137 30)" fill="#433c3e"/>
    <path id="Fill_22" data-name="Fill 22" d="M5.768,0H3.783A4.133,4.133,0,0,0,2.139.327,1.229,1.229,0,0,0,1.232,0C.449,0,0,.4,0,1.11V9.89C0,10.6.449,11,1.232,11s1.232-.4,1.232-1.11V3.3a.921.921,0,0,1,.373-.746,1.432,1.432,0,0,1,.946-.326H5.768C6.551,2.234,7,1.824,7,1.11S6.551,0,5.768,0" transform="translate(155 30)" fill="#433c3e"/>
    <path id="Fill_24" data-name="Fill 24" d="M12.86,5.336a4.065,4.065,0,0,0-2.7-.947H3.837a1.449,1.449,0,0,1-.958-.33A.939.939,0,0,1,2.5,3.3a.919.919,0,0,1,.378-.746,1.468,1.468,0,0,1,.96-.326h6.325c.795,0,1.251-.409,1.251-1.123S10.957,0,10.162,0H3.837a4.056,4.056,0,0,0-2.69.953,3,3,0,0,0-.007,4.71,4.064,4.064,0,0,0,2.7.947h6.325a1.451,1.451,0,0,1,.958.33.939.939,0,0,1,.38.755.92.92,0,0,1-.378.746,1.472,1.472,0,0,1-.961.326H1.25C.456,8.767,0,9.176,0,9.89S.456,11,1.25,11h8.912a4.077,4.077,0,0,0,2.632-.906A2.954,2.954,0,0,0,14,7.695a2.986,2.986,0,0,0-1.14-2.359" transform="translate(164 30)" fill="#433c3e"/>
    <path id="Fill_26" data-name="Fill 26" d="M19.526,21a1.349,1.349,0,0,1-1.3-.778l-2.907-5.848H5.68L2.789,20.222A1.363,1.363,0,0,1,1.474,21C.537,21,0,20.513,0,19.664a1.254,1.254,0,0,1,.144-.58L9.176.864a1.446,1.446,0,0,1,2.65,0l9.032,18.22a1.242,1.242,0,0,1,.141.576C21,20.513,20.463,21,19.526,21ZM10.508,4.648h0L7.014,11.667h6.974L10.508,4.648Z" transform="translate(41 53)" fill="#433c3e"/>
    <path id="Fill_28" data-name="Fill 28" d="M20.338,18.491,5.845,9.6l12.64-7.069a1.305,1.305,0,0,0,.726-1.175A1.283,1.283,0,0,0,17.755,0a1.538,1.538,0,0,0-.782.2L2.912,8.063v-6.7A1.283,1.283,0,0,0,1.456,0,1.283,1.283,0,0,0,0,1.358V19.624a1.283,1.283,0,0,0,1.456,1.359,1.283,1.283,0,0,0,1.456-1.359V11.249l.162-.089,15.656,9.6a1.519,1.519,0,0,0,.815.245A1.3,1.3,0,0,0,21,19.607a1.266,1.266,0,0,0-.662-1.116" transform="translate(89 53)" fill="#433c3e"/>
    <path id="Fill_30" data-name="Fill 30" d="M14.59,9.847H5.434a2.82,2.82,0,0,1-1.789-.621A2.061,2.061,0,0,1,2.82,7.564V0L0,3.274v4.29a5.229,5.229,0,0,0,1.714,3.972A5.312,5.312,0,0,0,5.434,13H14.59c.9,0,1.41-.575,1.41-1.576s-.514-1.576-1.41-1.576" transform="translate(68 63)" fill="#433c3e"/>
    <path id="Fill_32" data-name="Fill 32" d="M4,1.41C4,.514,3.271,0,2,0S0,.514,0,1.41V11L4,8.07Z" transform="translate(67 53)" fill="#433c3e"/>
    <path id="Fill_34" data-name="Fill 34" d="M2,0C.729,0,0,.5,0,1.358V19.641C0,20.5.729,21,2,21s2-.5,2-1.359V1.358C4,.5,3.271,0,2,0" transform="translate(178 53)" fill="#433c3e"/>
    <path id="Fill_36" data-name="Fill 36" d="M21.247,1.261A6.085,6.085,0,0,0,17.428,0H1.441A1.276,1.276,0,0,0,0,1.358V19.641A1.276,1.276,0,0,0,1.441,21H17.428a6.124,6.124,0,0,0,3.763-1.224A4.205,4.205,0,0,0,23,16.314V9.357l-2.882,2.822v4.136a1.666,1.666,0,0,1-.838,1.43,3.279,3.279,0,0,1-1.852.539H2.882V2.717H17.428a3.278,3.278,0,0,1,1.85.538,1.667,1.667,0,0,1,.841,1.431v5.47L23,7.334V4.686a4.214,4.214,0,0,0-1.753-3.425" transform="translate(150 53)" fill="#433c3e"/>
    <path id="Fill_38" data-name="Fill 38" d="M2,0C.729,0,0,.492,0,1.349V9L4,6.113V1.349C4,.492,3.271,0,2,0" transform="translate(114 55)" fill="#433c3e"/>
    <path id="Fill_40" data-name="Fill 40" d="M0,11.545C0,12.47.729,13,2,13s2-.53,2-1.455V0L0,3.113Z" transform="translate(114 63)" fill="#433c3e"/>
    <path id="Fill_42" data-name="Fill 42" d="M2.609.52A1.662,1.662,0,0,0,1.427,0,1.3,1.3,0,0,0,0,1.428V19.643C0,20.505.547,21,1.5,21S3,20.505,3,19.643V4.909l5.9,5.732L11,8.673Z" transform="translate(123 53)" fill="#433c3e"/>
    <path id="Fill_44" data-name="Fill 44" d="M9.588,0A1.261,1.261,0,0,0,8.176,1.358V16.109L1.972,9.7,0,11.668,8.546,20.5a1.5,1.5,0,0,0,1.112.5A1.262,1.262,0,0,0,11,19.572V1.358A1.261,1.261,0,0,0,9.588,0" transform="translate(133 53)" fill="#433c3e"/>
  </g>
</svg>
