<svg id="Illustration_-_environnement_2" data-name="Illustration - environnement 2" xmlns="http://www.w3.org/2000/svg" xmlns:xlink="http://www.w3.org/1999/xlink" width="196" height="159.5" viewBox="0 0 196 159.5">
  <defs>
    <linearGradient id="linear-gradient" x1="0.5" y1="0.255" x2="0.5" y2="1" gradientUnits="objectBoundingBox">
      <stop offset="0" stop-color="#6baaf4"/>
      <stop offset="1" stop-color="#4a90e2"/>
    </linearGradient>
    <filter id="Combined_Shape" x="40.5" y="37.5" width="131.5" height="86.5" filterUnits="userSpaceOnUse">
      <feOffset dy="2" input="SourceAlpha"/>
      <feGaussianBlur result="blur"/>
      <feFlood flood-color="#2e5e95"/>
      <feComposite operator="in" in2="blur"/>
      <feComposite in="SourceGraphic"/>
    </filter>
  </defs>
  <g id="Illustration_:_environnement" data-name="Illustration : environnement">
    <ellipse id="Oval" cx="46" cy="45.75" rx="46" ry="45.75" transform="translate(104)" fill="#f5a623"/>
    <circle id="Oval_Copy_18" data-name="Oval Copy 18" cx="45.75" cy="45.75" r="45.75" transform="translate(0 68)" fill="#9acc68"/>
    <g id="Group_4_Copy" data-name="Group 4 Copy" transform="translate(40.5 37.5)">
      <g transform="matrix(1, 0, 0, 1, -40.5, -37.5)" filter="url(#Combined_Shape)">
        <path id="Combined_Shape-2" data-name="Combined Shape" d="M3.606,84.5A3.614,3.614,0,0,1,0,80.887V3.5a2.507,2.507,0,0,1,.062-.556A3.614,3.614,0,0,1,3.606,0H127.894A3.614,3.614,0,0,1,131.5,3.614V80.887a3.614,3.614,0,0,1-3.606,3.613ZM1.5,81.046A1.949,1.949,0,0,0,3.44,83H127.561a1.949,1.949,0,0,0,1.94-1.954V11H1.5Z" transform="translate(40.5 37.5)" fill="url(#linear-gradient)"/>
      </g>
      <rect id="Rectangle" width="129" height="72.5" rx="0.5" transform="translate(1 11)" fill="#fff"/>
      <circle id="Oval-2" data-name="Oval" cx="13.5" cy="13.5" r="13.5" transform="translate(11 35)" fill="none" stroke="#4a90e2" stroke-miterlimit="10" stroke-width="0.5"/>
      <circle id="Oval-3" data-name="Oval" cx="2" cy="2" r="2" transform="translate(124 4)" fill="#fff"/>
      <ellipse id="Oval_Copy" data-name="Oval Copy" cx="1.75" cy="2" rx="1.75" ry="2" transform="translate(118.5 4)" fill="#fff"/>
      <rect id="Rectangle-2" data-name="Rectangle" width="79" height="5" rx="2.5" transform="translate(29.5 3)" fill="#fff"/>
      <circle id="Oval-4" data-name="Oval" cx="3.5" cy="3.5" r="3.5" transform="translate(21 32)" fill="#f5a623"/>
      <circle id="Oval_Copy_39" data-name="Oval Copy 39" cx="3.5" cy="3.5" r="3.5" transform="translate(21 58)" fill="#f5a623"/>
      <circle id="Oval-5" data-name="Oval" cx="3.5" cy="3.5" r="3.5" transform="translate(34.5 45)" fill="#f5a623"/>
      <circle id="Oval_Copy_40" data-name="Oval Copy 40" cx="3.5" cy="3.5" r="3.5" transform="translate(30.5 36)" fill="#f5a623"/>
      <circle id="Oval_Copy_41" data-name="Oval Copy 41" cx="3.5" cy="3.5" r="3.5" transform="translate(11.5 54.5)" fill="#f5a623"/>
      <circle id="Oval_Copy_42" data-name="Oval Copy 42" cx="3.5" cy="3.5" r="3.5" transform="translate(30.5 54.5)" fill="#f5a623"/>
      <circle id="Oval_Copy_43" data-name="Oval Copy 43" cx="3.5" cy="3.5" r="3.5" transform="translate(11.5 36)" fill="#f5a623"/>
      <circle id="Oval_Copy_39-2" data-name="Oval Copy 39" cx="3.5" cy="3.5" r="3.5" transform="translate(7.5 46)" fill="#f5a623"/>
    </g>
    <g id="Group_4" data-name="Group 4" transform="translate(106.5 109.5)">
      <path id="Combined_Shape-3" data-name="Combined Shape" d="M7.63,20,6.5,17h13l-1.13,3ZM1,17a1,1,0,0,1-1-1V1A1,1,0,0,1,1,0H6.5L7.63,3H18.37L19.5,0H80a1,1,0,0,1,1,1V16a1,1,0,0,1-1,1Z" fill="#f5a623"/>
      <text id="Scratch" transform="translate(4 3)" fill="#fff" font-size="8" font-family="TitilliumWeb-Bold, Titillium Web" font-weight="700" letter-spacing="-0.017em"><tspan x="0" y="9">Scratch</tspan></text>
    </g>
    <text id="for_loop_in_range_4" data-name="for loop in range (4" transform="translate(95.5 70)" fill="#4a90e2" font-size="5.5" font-family="Courier" letter-spacing="-0.017em"><tspan x="0" y="0">for</tspan><tspan y="0" xml:space="preserve" fill="#4a4a4a"> loop </tspan><tspan y="0">in</tspan><tspan y="0" xml:space="preserve" fill="#4a4a4a"> range (</tspan><tspan y="0">4</tspan><tspan y="0" fill="#4a4a4a">):</tspan><tspan fill="#4a4a4a"><tspan x="0" y="5" xml:space="preserve">	forward(</tspan><tspan y="5" fill="#4a90e2">100</tspan><tspan y="5">)</tspan><tspan x="0" y="10" xml:space="preserve">	left(</tspan><tspan y="10" fill="#4a90e2">90</tspan><tspan y="10">)</tspan></tspan></text>
    <rect id="Rectangle-3" data-name="Rectangle" width="130" height="0.5" transform="translate(41.5 60.5)" fill="#4a90e2"/>
    <rect id="Rectangle-4" data-name="Rectangle" width="0.5" height="60.5" transform="translate(91.5 61)" fill="#4a90e2"/>
    <g id="Group_7" data-name="Group 7" transform="translate(49 112)">
      <circle id="Oval-6" data-name="Oval" cx="2.75" cy="2.75" r="2.75" transform="translate(4)" fill="#4a90e2"/>
      <circle id="Oval_Copy_2" data-name="Oval Copy 2" cx="1.25" cy="1.25" r="1.25" transform="translate(0 2)" fill="#4a90e2"/>
      <circle id="Oval_Copy_3" data-name="Oval Copy 3" cx="1.25" cy="1.25" r="1.25" transform="translate(11 2)" fill="#4a90e2"/>
      <circle id="Oval_Copy_16" data-name="Oval Copy 16" cx="1.25" cy="1.25" r="1.25" transform="translate(14.5 2)" fill="#4a90e2"/>
    </g>
    <rect id="Rectangle-5" data-name="Rectangle" width="15.5" height="1.5" rx="0.75" transform="translate(68 114.5)" fill="#4a90e2"/>
    <g id="Group_5" data-name="Group 5" transform="translate(89.5 89)">
      <path id="Combined_Shape-4" data-name="Combined Shape" d="M5.5,17a1,1,0,0,1-1-1V13.7a2.99,2.99,0,0,1-.5.286l-2,.892c-1.1.492-2-.524-2-2.269V4.392c0-1.745.9-2.76,2-2.268l2,.892a2.99,2.99,0,0,1,.5.286V1a1,1,0,0,1,1-1h36a1,1,0,0,1,1,1V16a1,1,0,0,1-1,1Z" fill="#9acc68"/>
      <text id="Blockly" transform="translate(8.5 2)" fill="#fff" font-size="8" font-family="TitilliumWeb-Bold, Titillium Web" font-weight="700" letter-spacing="-0.017em"><tspan x="0" y="9">Blockly</tspan></text>
    </g>
    <path id="Path_5" data-name="Path 5" d="M.25.125" transform="translate(195.5 25)" fill="none" stroke="#979797" stroke-miterlimit="10" stroke-width="0.5"/>
  </g>
</svg>
