<?xml version="1.0" encoding="UTF-8"?>
<svg width="30px" height="38px" viewBox="0 0 30 38" version="1.1" xmlns="http://www.w3.org/2000/svg" xmlns:xlink="http://www.w3.org/1999/xlink">
    <title>Loupe</title>
    <g id="Page-1" stroke="none" stroke-width="1" fill="none" fill-rule="evenodd">
        <g id="FIOI-Home" transform="translate(-238.000000, -31.000000)">
            <g id="Header" transform="translate(0.000000, -13.000000)">
                <g id="Illustration" transform="translate(21.000000, 0.551616)">
                    <g id="Loupe" transform="translate(217.000000, 43.448384)">
                        <path d="M14.25,0 C21.5677729,0 27.5,5.93222707 27.5,13.25 C27.5,20.5677729 21.5677729,26.5 14.25,26.5 C6.93222707,26.5 1,20.5677729 1,13.25 C1,5.93222707 6.93222707,0 14.25,0 Z M13.4042553,2.81914894 C7.64345535,2.81914894 2.97340426,7.48920003 2.97340426,13.25 C2.97340426,19.0108 7.64345535,23.6808511 13.4042553,23.6808511 C19.1650553,23.6808511 23.8351064,19.0108 23.8351064,13.25 C23.8351064,7.48920003 19.1650553,2.81914894 13.4042553,2.81914894 Z" id="Combined-Shape" fill="#DC951F"></path>
                        <path d="M13.25,0 C20.5677729,0 26.5,5.93222707 26.5,13.25 C26.5,20.5677729 20.5677729,26.5 13.25,26.5 C5.93222707,26.5 0,20.5677729 0,13.25 C0,5.93222707 5.93222707,0 13.25,0 Z M13.25,2.81914894 C7.48920003,2.81914894 2.81914894,7.48920003 2.81914894,13.25 C2.81914894,19.0108 7.48920003,23.6808511 13.25,23.6808511 C19.0108,23.6808511 23.6808511,19.0108 23.6808511,13.25 C23.6808511,7.48920003 19.0108,2.81914894 13.25,2.81914894 Z" id="Combined-Shape" fill="#F5A623"></path>
                        <path d="M13.9614566,2.25 C19.7817334,2.25 24.5,7.17486775 24.5,13.25 C24.5,19.3251322 19.7817334,24.25 13.9614566,24.25 C11.4121961,24.25 9.07434627,23.3052091 7.25176518,21.7327905 C8.98002785,22.9617922 11.1005231,23.6858974 13.3918056,23.6858974 C19.2120824,23.6858974 23.930349,19.013587 23.930349,13.25 C23.930349,7.486413 19.2120824,2.81410256 13.3918056,2.81410256 C11.1018607,2.81410256 8.98250368,3.53736266 7.25397834,4.76578436 L7.28318166,4.74021098 C9.10117534,3.18398246 11.42682,2.25 13.9614566,2.25 Z" id="Combined-Shape" fill="#FFBE54"></path>
                        <path d="M12.6995683,2.25 C14.7394246,2.25 16.6427661,2.86527736 18.2512525,3.92915117 C16.8374165,3.21584569 15.2391011,2.81410256 13.5468306,2.81410256 C7.77569336,2.81410256 3.09726229,7.486413 3.09726229,13.25 C3.09726229,19.013587 7.77569336,23.6858974 13.5468306,23.6858974 C15.2391011,23.6858974 16.8374165,23.2841543 18.2513699,22.5709568 C16.6427661,23.6347226 14.7394246,24.25 12.6995683,24.25 C6.92843107,24.25 2.25,19.3251322 2.25,13.25 C2.25,7.17486775 6.92843107,2.25 12.6995683,2.25 Z" id="Combined-Shape" fill="#DC951F"></path>
                        <g id="Group-7" transform="translate(24.221040, 30.142820) rotate(-30.000000) translate(-24.221040, -30.142820) translate(21.721040, 23.142820)">
                            <g id="Group-6" transform="translate(0.000000, 1.409574)">
                                <rect id="Rectangle" fill="#F5A623" x="0" y="0" width="4.22495285" height="11.2765957"></rect>
                                <rect id="Rectangle" fill-opacity="0.1" fill="#000000" x="1.97164466" y="0" width="2.25330819" height="11.2765957"></rect>
                            </g>
                            <g id="Group-6-Copy" transform="translate(0.563327, 0.000000)">
                                <rect id="Rectangle" fill="#F5A623" x="0" y="0" width="3.09829876" height="1.40957447"></rect>
                                <rect id="Rectangle" fill-opacity="0.1" fill="#000000" x="1.40831762" y="0" width="1.68998114" height="1.40957447"></rect>
                            </g>
                        </g>
                        <path d="M13.75,5.75 C9.46979319,5.75 6,9.21979319 6,13.5" id="Oval" stroke="#FFFFFF" stroke-width="2" opacity="0.5" stroke-linecap="round"></path>
                    </g>
                </g>
            </g>
        </g>
    </g>
</svg>